M48
; DRILL file {KiCad 8.0.1+dfsg-1} date 2024-10-13T21:14:54+0000
; FORMAT={-:-/ absolute / metric / decimal}
; #@! TF.CreationDate,2024-10-13T21:14:54+00:00
; #@! TF.GenerationSoftware,Kicad,Pcbnew,8.0.1+dfsg-1
; #@! TF.FileFunction,Plated,1,2,PTH
FMAT,2
METRIC
; #@! TA.AperFunction,Plated,PTH,ComponentDrill
T1C0.200
; #@! TA.AperFunction,Plated,PTH,ViaDrill
T2C0.300
; #@! TA.AperFunction,Plated,PTH,ViaDrill
T3C0.400
; #@! TA.AperFunction,Plated,PTH,ComponentDrill
T4C0.600
; #@! TA.AperFunction,Plated,PTH,ComponentDrill
T5C2.600
; #@! TA.AperFunction,Plated,PTH,ComponentDrill
T6C2.700
%
G90
G05
T1
X123.075Y-78.237
X123.825Y-78.237
X124.575Y-78.237
T2
X121.35Y-83.5
X121.6Y-89.9
X122.0Y-81.3
X125.1Y-97.2
X125.3Y-80.4
X126.0Y-97.2
X126.507Y-82.792
X126.7Y-85.4
X127.0Y-97.1
X129.4Y-74.9
X129.5Y-89.2
X130.2Y-85.9
X133.5Y-75.0
X134.6Y-94.5
X135.5Y-94.5
X137.2Y-74.7
X137.3Y-80.6
X137.3Y-81.5
X137.3Y-83.0
X137.5Y-77.5
X137.5Y-78.3
T3
X120.2Y-77.2
X120.7Y-76.0
X123.3Y-74.3
X124.3Y-92.6
X125.8Y-74.3
X126.4Y-91.7
X128.2Y-76.8
X128.2Y-77.9
X130.1Y-75.65
X132.85Y-82.75
X132.85Y-84.25
X132.85Y-90.75
X132.85Y-92.2
X132.9Y-76.75
X132.9Y-78.25
X132.9Y-79.75
X132.9Y-81.25
X137.6Y-88.0
X142.7Y-96.0
X143.9Y-94.5
X145.1Y-96.0
X146.8Y-83.0
T5
X165.0Y-83.0
T6
X122.0Y-71.0
X122.0Y-95.0
X166.0Y-71.0
X166.0Y-95.0
T4
X120.69Y-82.36G85X120.09Y-82.36
G05
X120.69Y-91.0G85X120.09Y-91.0
G05
X125.12Y-82.36G85X124.02Y-82.36
G05
X125.12Y-91.0G85X124.02Y-91.0
G05
M30
