G04 #@! TF.GenerationSoftware,KiCad,Pcbnew,8.0.1+dfsg-1*
G04 #@! TF.CreationDate,2024-10-13T21:14:54+00:00*
G04 #@! TF.ProjectId,usb2m2e,75736232-6d32-4652-9e6b-696361645f70,rev?*
G04 #@! TF.SameCoordinates,Original*
G04 #@! TF.FileFunction,Copper,L2,Bot*
G04 #@! TF.FilePolarity,Positive*
%FSLAX46Y46*%
G04 Gerber Fmt 4.6, Leading zero omitted, Abs format (unit mm)*
G04 Created by KiCad (PCBNEW 8.0.1+dfsg-1) date 2024-10-13 21:14:54*
%MOMM*%
%LPD*%
G01*
G04 APERTURE LIST*
G04 #@! TA.AperFunction,ComponentPad*
%ADD10C,4.500000*%
G04 #@! TD*
G04 #@! TA.AperFunction,HeatsinkPad*
%ADD11C,0.500000*%
G04 #@! TD*
G04 #@! TA.AperFunction,HeatsinkPad*
%ADD12R,2.000000X0.500000*%
G04 #@! TD*
G04 #@! TA.AperFunction,ComponentPad*
%ADD13O,2.100000X1.000000*%
G04 #@! TD*
G04 #@! TA.AperFunction,ComponentPad*
%ADD14O,1.600000X1.000000*%
G04 #@! TD*
G04 #@! TA.AperFunction,ComponentPad*
%ADD15C,5.000000*%
G04 #@! TD*
G04 #@! TA.AperFunction,SMDPad,CuDef*
%ADD16C,1.500000*%
G04 #@! TD*
G04 #@! TA.AperFunction,ViaPad*
%ADD17C,0.800000*%
G04 #@! TD*
G04 #@! TA.AperFunction,ViaPad*
%ADD18C,0.600000*%
G04 #@! TD*
G04 #@! TA.AperFunction,Conductor*
%ADD19C,0.150000*%
G04 #@! TD*
G04 APERTURE END LIST*
D10*
X122000000Y-71000000D03*
X166000000Y-95000000D03*
D11*
X123075000Y-78237500D03*
X123825000Y-78237500D03*
D12*
X123825000Y-78237500D03*
D11*
X124575000Y-78237500D03*
D10*
X166000000Y-71000000D03*
D13*
X124570000Y-82360000D03*
D14*
X120390000Y-82360000D03*
D13*
X124570000Y-91000000D03*
D14*
X120390000Y-91000000D03*
D10*
X122000000Y-95000000D03*
D15*
X165000000Y-83000000D03*
D16*
X144200000Y-74700000D03*
X146800000Y-83000000D03*
X146800000Y-74700000D03*
X144200000Y-83000000D03*
X139000000Y-83000000D03*
X139000000Y-74700000D03*
X141600000Y-83000000D03*
X141600000Y-74700000D03*
D17*
X137600000Y-88000000D03*
D18*
X129500000Y-89200000D03*
D17*
X132900000Y-78250000D03*
X120200000Y-77200000D03*
D18*
X127000000Y-97100000D03*
X125300000Y-80400000D03*
X121600000Y-89900000D03*
D17*
X125800000Y-74300000D03*
X142700000Y-96000000D03*
X132900000Y-76750000D03*
X143900000Y-94500000D03*
X130100000Y-75650000D03*
X128200000Y-76800000D03*
D18*
X135500000Y-94500000D03*
D17*
X126400000Y-91700000D03*
D18*
X126000000Y-97200000D03*
X121350000Y-83500000D03*
D17*
X132900000Y-79750000D03*
X132850000Y-82750000D03*
D18*
X122000000Y-81300000D03*
D17*
X132850000Y-90750000D03*
X132850000Y-84250000D03*
X120700000Y-76000000D03*
X128200000Y-77900000D03*
X132850000Y-92200000D03*
D18*
X130200000Y-85900000D03*
D17*
X124300000Y-92600000D03*
X123300000Y-74300000D03*
X145100000Y-96000000D03*
X132900000Y-81250000D03*
D18*
X126700000Y-85400000D03*
X126507053Y-82791975D03*
X129400000Y-74900000D03*
X133500000Y-75000000D03*
D17*
X146800000Y-83000000D03*
D18*
X137300000Y-83000000D03*
X137500000Y-78300000D03*
X134600000Y-94500000D03*
X125100000Y-97200000D03*
X137300000Y-81500000D03*
X137300000Y-80600000D03*
X137200000Y-74700000D03*
X137500000Y-77500000D03*
D19*
X126700000Y-85400000D02*
X126700000Y-82984922D01*
X126700000Y-82984922D02*
X126507053Y-82791975D01*
X129400000Y-74900000D02*
X129500000Y-75000000D01*
X129500000Y-75000000D02*
X133500000Y-75000000D01*
X137300000Y-83000000D02*
X139000000Y-83000000D01*
X137500000Y-78300000D02*
X140600000Y-78300000D01*
X140600000Y-78300000D02*
X144200000Y-74700000D01*
X125800000Y-96500000D02*
X129500000Y-96500000D01*
X132600000Y-96500000D02*
X134600000Y-94500000D01*
X125100000Y-97200000D02*
X125800000Y-96500000D01*
X129500000Y-96500000D02*
X132600000Y-96500000D01*
X140100000Y-81500000D02*
X141600000Y-83000000D01*
X137300000Y-81500000D02*
X140100000Y-81500000D01*
X144200000Y-83000000D02*
X141800000Y-80600000D01*
X141800000Y-80600000D02*
X137300000Y-80600000D01*
X137200000Y-74700000D02*
X139000000Y-74700000D01*
X138800000Y-77500000D02*
X141600000Y-74700000D01*
X137500000Y-77500000D02*
X138800000Y-77500000D01*
G04 #@! TA.AperFunction,Conductor*
G36*
X166002065Y-68250615D02*
G01*
X166303708Y-68267555D01*
X166311944Y-68268484D01*
X166607719Y-68318739D01*
X166615810Y-68320585D01*
X166904119Y-68403645D01*
X166911933Y-68406379D01*
X167189122Y-68521195D01*
X167196598Y-68524795D01*
X167400263Y-68637357D01*
X167459182Y-68669920D01*
X167466209Y-68674335D01*
X167710901Y-68847953D01*
X167717389Y-68853128D01*
X167941091Y-69053041D01*
X167946958Y-69058908D01*
X168146871Y-69282610D01*
X168152046Y-69289098D01*
X168325664Y-69533790D01*
X168330079Y-69540817D01*
X168475204Y-69803401D01*
X168478804Y-69810877D01*
X168593616Y-70088057D01*
X168596357Y-70095890D01*
X168679414Y-70384190D01*
X168681260Y-70392280D01*
X168731514Y-70688049D01*
X168732444Y-70696296D01*
X168749384Y-70997934D01*
X168749500Y-71002083D01*
X168749500Y-94997916D01*
X168749384Y-95002065D01*
X168732444Y-95303703D01*
X168731514Y-95311950D01*
X168681260Y-95607719D01*
X168679414Y-95615809D01*
X168596357Y-95904109D01*
X168593616Y-95911942D01*
X168478804Y-96189122D01*
X168475204Y-96196598D01*
X168330079Y-96459182D01*
X168325664Y-96466209D01*
X168152046Y-96710901D01*
X168146871Y-96717389D01*
X167946958Y-96941091D01*
X167941091Y-96946958D01*
X167717389Y-97146871D01*
X167710901Y-97152046D01*
X167466209Y-97325664D01*
X167459182Y-97330079D01*
X167196598Y-97475204D01*
X167189122Y-97478804D01*
X166911942Y-97593616D01*
X166904109Y-97596357D01*
X166615809Y-97679414D01*
X166607719Y-97681260D01*
X166311950Y-97731514D01*
X166303703Y-97732444D01*
X166002066Y-97749384D01*
X165997917Y-97749500D01*
X125330254Y-97749500D01*
X125277928Y-97727826D01*
X125256254Y-97675500D01*
X125277928Y-97623174D01*
X125290247Y-97613247D01*
X125316528Y-97596357D01*
X125398049Y-97543967D01*
X125482882Y-97446063D01*
X125536697Y-97328226D01*
X125555133Y-97200000D01*
X125543279Y-97117559D01*
X125557286Y-97062683D01*
X125564192Y-97054711D01*
X125871732Y-96747174D01*
X125924058Y-96725500D01*
X129455145Y-96725500D01*
X132546525Y-96725500D01*
X132546533Y-96725501D01*
X132555145Y-96725501D01*
X132644854Y-96725501D01*
X132644855Y-96725501D01*
X132703460Y-96701225D01*
X132727736Y-96691170D01*
X132791170Y-96627736D01*
X132791170Y-96627735D01*
X132801575Y-96617330D01*
X132801577Y-96617327D01*
X134418904Y-94999999D01*
X163594754Y-94999999D01*
X163594754Y-95000000D01*
X163613719Y-95301447D01*
X163613722Y-95301470D01*
X163670318Y-95598157D01*
X163670322Y-95598173D01*
X163763654Y-95885419D01*
X163763656Y-95885423D01*
X163892267Y-96158737D01*
X164054114Y-96413767D01*
X164246647Y-96646500D01*
X164246650Y-96646502D01*
X164246651Y-96646504D01*
X164466838Y-96853274D01*
X164711205Y-97030816D01*
X164975896Y-97176332D01*
X165035675Y-97200000D01*
X165256730Y-97287522D01*
X165256734Y-97287524D01*
X165256738Y-97287525D01*
X165549302Y-97362642D01*
X165549298Y-97362642D01*
X165848965Y-97400499D01*
X165848972Y-97400500D01*
X165848973Y-97400500D01*
X166151028Y-97400500D01*
X166151031Y-97400499D01*
X166450698Y-97362642D01*
X166743262Y-97287525D01*
X167024104Y-97176332D01*
X167288795Y-97030816D01*
X167533162Y-96853274D01*
X167753349Y-96646504D01*
X167945885Y-96413768D01*
X168107733Y-96158736D01*
X168236341Y-95885430D01*
X168250308Y-95842446D01*
X168329677Y-95598173D01*
X168329677Y-95598170D01*
X168329681Y-95598160D01*
X168386280Y-95301457D01*
X168405246Y-95000000D01*
X168386280Y-94698543D01*
X168329681Y-94401840D01*
X168329678Y-94401833D01*
X168329677Y-94401826D01*
X168236345Y-94114580D01*
X168236343Y-94114576D01*
X168236342Y-94114575D01*
X168236341Y-94114570D01*
X168107733Y-93841264D01*
X168081863Y-93800500D01*
X167945885Y-93586232D01*
X167753352Y-93353499D01*
X167753349Y-93353496D01*
X167533162Y-93146726D01*
X167431191Y-93072640D01*
X167288800Y-92969187D01*
X167201436Y-92921158D01*
X167024104Y-92823668D01*
X167024097Y-92823665D01*
X166743269Y-92712477D01*
X166743265Y-92712475D01*
X166450696Y-92637357D01*
X166450701Y-92637357D01*
X166151034Y-92599500D01*
X166151027Y-92599500D01*
X165848973Y-92599500D01*
X165848965Y-92599500D01*
X165549301Y-92637357D01*
X165256734Y-92712475D01*
X165256730Y-92712477D01*
X164975902Y-92823665D01*
X164975895Y-92823668D01*
X164711199Y-92969187D01*
X164466839Y-93146725D01*
X164246647Y-93353499D01*
X164054114Y-93586232D01*
X163892267Y-93841262D01*
X163763656Y-94114576D01*
X163763654Y-94114580D01*
X163670322Y-94401826D01*
X163670318Y-94401842D01*
X163613722Y-94698529D01*
X163613719Y-94698552D01*
X163594754Y-94999999D01*
X134418904Y-94999999D01*
X134452526Y-94966377D01*
X134504851Y-94944704D01*
X134525699Y-94947702D01*
X134535228Y-94950500D01*
X134535229Y-94950500D01*
X134664772Y-94950500D01*
X134789069Y-94914004D01*
X134898049Y-94843967D01*
X134982882Y-94746063D01*
X135036697Y-94628226D01*
X135055133Y-94500000D01*
X135036697Y-94371774D01*
X134982882Y-94253937D01*
X134898049Y-94156033D01*
X134831032Y-94112964D01*
X134789068Y-94085995D01*
X134664772Y-94049500D01*
X134535228Y-94049500D01*
X134410931Y-94085995D01*
X134301954Y-94156031D01*
X134301950Y-94156034D01*
X134217119Y-94253935D01*
X134163302Y-94371776D01*
X134144867Y-94500000D01*
X134156719Y-94582439D01*
X134142712Y-94637316D01*
X134135798Y-94645295D01*
X132528269Y-96252826D01*
X132475943Y-96274500D01*
X125755145Y-96274500D01*
X125672266Y-96308828D01*
X125672262Y-96308831D01*
X125247473Y-96733620D01*
X125195147Y-96755294D01*
X125174301Y-96752297D01*
X125164774Y-96749500D01*
X125164772Y-96749500D01*
X125035228Y-96749500D01*
X124910931Y-96785995D01*
X124801954Y-96856031D01*
X124801950Y-96856034D01*
X124717119Y-96953935D01*
X124663302Y-97071776D01*
X124644867Y-97200000D01*
X124663302Y-97328223D01*
X124663302Y-97328224D01*
X124663303Y-97328226D01*
X124717118Y-97446063D01*
X124801951Y-97543967D01*
X124883472Y-97596357D01*
X124909753Y-97613247D01*
X124942055Y-97659770D01*
X124931999Y-97715507D01*
X124885476Y-97747809D01*
X124869746Y-97749500D01*
X122002083Y-97749500D01*
X121997934Y-97749384D01*
X121696296Y-97732444D01*
X121688049Y-97731514D01*
X121392280Y-97681260D01*
X121384190Y-97679414D01*
X121095890Y-97596357D01*
X121088057Y-97593616D01*
X120810877Y-97478804D01*
X120803401Y-97475204D01*
X120540817Y-97330079D01*
X120533790Y-97325664D01*
X120289098Y-97152046D01*
X120282610Y-97146871D01*
X120058908Y-96946958D01*
X120053041Y-96941091D01*
X119853128Y-96717389D01*
X119847953Y-96710901D01*
X119674335Y-96466209D01*
X119669920Y-96459182D01*
X119586823Y-96308830D01*
X119524795Y-96196598D01*
X119521195Y-96189122D01*
X119508609Y-96158736D01*
X119406379Y-95911933D01*
X119403645Y-95904119D01*
X119320585Y-95615809D01*
X119318739Y-95607719D01*
X119268485Y-95311950D01*
X119267555Y-95303703D01*
X119267428Y-95301447D01*
X119250616Y-95002065D01*
X119250558Y-94999999D01*
X119594754Y-94999999D01*
X119594754Y-95000000D01*
X119613719Y-95301447D01*
X119613722Y-95301470D01*
X119670318Y-95598157D01*
X119670322Y-95598173D01*
X119763654Y-95885419D01*
X119763656Y-95885423D01*
X119892267Y-96158737D01*
X120054114Y-96413767D01*
X120246647Y-96646500D01*
X120246650Y-96646502D01*
X120246651Y-96646504D01*
X120466838Y-96853274D01*
X120711205Y-97030816D01*
X120975896Y-97176332D01*
X121035675Y-97200000D01*
X121256730Y-97287522D01*
X121256734Y-97287524D01*
X121256738Y-97287525D01*
X121549302Y-97362642D01*
X121549298Y-97362642D01*
X121848965Y-97400499D01*
X121848972Y-97400500D01*
X121848973Y-97400500D01*
X122151028Y-97400500D01*
X122151031Y-97400499D01*
X122450698Y-97362642D01*
X122743262Y-97287525D01*
X123024104Y-97176332D01*
X123288795Y-97030816D01*
X123533162Y-96853274D01*
X123753349Y-96646504D01*
X123945885Y-96413768D01*
X124107733Y-96158736D01*
X124236341Y-95885430D01*
X124250308Y-95842446D01*
X124329677Y-95598173D01*
X124329677Y-95598170D01*
X124329681Y-95598160D01*
X124386280Y-95301457D01*
X124405246Y-95000000D01*
X124386280Y-94698543D01*
X124329681Y-94401840D01*
X124329678Y-94401833D01*
X124329677Y-94401826D01*
X124236345Y-94114580D01*
X124236343Y-94114576D01*
X124236342Y-94114575D01*
X124236341Y-94114570D01*
X124107733Y-93841264D01*
X124081863Y-93800500D01*
X123945885Y-93586232D01*
X123753352Y-93353499D01*
X123753349Y-93353496D01*
X123533162Y-93146726D01*
X123431191Y-93072640D01*
X123288800Y-92969187D01*
X123201438Y-92921159D01*
X135949500Y-92921159D01*
X135949500Y-93078840D01*
X135980261Y-93233491D01*
X135980264Y-93233501D01*
X136040603Y-93379174D01*
X136040605Y-93379177D01*
X136040606Y-93379179D01*
X136128211Y-93510289D01*
X136239711Y-93621789D01*
X136370821Y-93709394D01*
X136370826Y-93709396D01*
X136370825Y-93709396D01*
X136516498Y-93769735D01*
X136516503Y-93769737D01*
X136671158Y-93800500D01*
X136671160Y-93800500D01*
X136828840Y-93800500D01*
X136828842Y-93800500D01*
X136983497Y-93769737D01*
X137129179Y-93709394D01*
X137260289Y-93621789D01*
X137371789Y-93510289D01*
X137459394Y-93379179D01*
X137519737Y-93233497D01*
X137550500Y-93078842D01*
X137550500Y-92921158D01*
X137519737Y-92766503D01*
X137466244Y-92637358D01*
X137459396Y-92620825D01*
X137459395Y-92620823D01*
X137459394Y-92620821D01*
X137371789Y-92489711D01*
X137260289Y-92378211D01*
X137129179Y-92290606D01*
X137129175Y-92290604D01*
X137129173Y-92290603D01*
X137129174Y-92290603D01*
X136983501Y-92230264D01*
X136983491Y-92230261D01*
X136879925Y-92209661D01*
X136828842Y-92199500D01*
X136671158Y-92199500D01*
X136627315Y-92208220D01*
X136516508Y-92230261D01*
X136516498Y-92230264D01*
X136370825Y-92290603D01*
X136239711Y-92378210D01*
X136239710Y-92378212D01*
X136128212Y-92489710D01*
X136128210Y-92489711D01*
X136040603Y-92620825D01*
X135980264Y-92766498D01*
X135980261Y-92766508D01*
X135949500Y-92921159D01*
X123201438Y-92921159D01*
X123201436Y-92921158D01*
X123024104Y-92823668D01*
X123024097Y-92823665D01*
X122743269Y-92712477D01*
X122743265Y-92712475D01*
X122450696Y-92637357D01*
X122450701Y-92637357D01*
X122151034Y-92599500D01*
X122151027Y-92599500D01*
X121848973Y-92599500D01*
X121848965Y-92599500D01*
X121549301Y-92637357D01*
X121256734Y-92712475D01*
X121256730Y-92712477D01*
X120975902Y-92823665D01*
X120975895Y-92823668D01*
X120711199Y-92969187D01*
X120466839Y-93146725D01*
X120246647Y-93353499D01*
X120054114Y-93586232D01*
X119892267Y-93841262D01*
X119763656Y-94114576D01*
X119763654Y-94114580D01*
X119670322Y-94401826D01*
X119670318Y-94401842D01*
X119613722Y-94698529D01*
X119613719Y-94698552D01*
X119594754Y-94999999D01*
X119250558Y-94999999D01*
X119250500Y-94997916D01*
X119250500Y-90935932D01*
X119439500Y-90935932D01*
X119439500Y-91064067D01*
X119464497Y-91189739D01*
X119464498Y-91189742D01*
X119464499Y-91189744D01*
X119513535Y-91308127D01*
X119584724Y-91414669D01*
X119675331Y-91505276D01*
X119781873Y-91576465D01*
X119900256Y-91625501D01*
X119900258Y-91625501D01*
X119900260Y-91625502D01*
X119942903Y-91633984D01*
X120025931Y-91650500D01*
X120025933Y-91650500D01*
X120754067Y-91650500D01*
X120754069Y-91650500D01*
X120879744Y-91625501D01*
X120998127Y-91576465D01*
X121104669Y-91505276D01*
X121195276Y-91414669D01*
X121266465Y-91308127D01*
X121315501Y-91189744D01*
X121340500Y-91064069D01*
X121340500Y-90935932D01*
X123369500Y-90935932D01*
X123369500Y-91064067D01*
X123394497Y-91189739D01*
X123394498Y-91189742D01*
X123394499Y-91189744D01*
X123443535Y-91308127D01*
X123514724Y-91414669D01*
X123605331Y-91505276D01*
X123711873Y-91576465D01*
X123830256Y-91625501D01*
X123830258Y-91625501D01*
X123830260Y-91625502D01*
X123872903Y-91633984D01*
X123955931Y-91650500D01*
X123955933Y-91650500D01*
X125184067Y-91650500D01*
X125184069Y-91650500D01*
X125309744Y-91625501D01*
X125428127Y-91576465D01*
X125534669Y-91505276D01*
X125625276Y-91414669D01*
X125696465Y-91308127D01*
X125745501Y-91189744D01*
X125770500Y-91064069D01*
X125770500Y-90935931D01*
X125745501Y-90810256D01*
X125696465Y-90691873D01*
X125625276Y-90585331D01*
X125534669Y-90494724D01*
X125428127Y-90423535D01*
X125428124Y-90423533D01*
X125428123Y-90423533D01*
X125309742Y-90374498D01*
X125309739Y-90374497D01*
X125219696Y-90356586D01*
X125184069Y-90349500D01*
X123955931Y-90349500D01*
X123924726Y-90355707D01*
X123830260Y-90374497D01*
X123830257Y-90374498D01*
X123711876Y-90423533D01*
X123605331Y-90494723D01*
X123605330Y-90494725D01*
X123514725Y-90585330D01*
X123514723Y-90585331D01*
X123443533Y-90691876D01*
X123394498Y-90810257D01*
X123394497Y-90810260D01*
X123369500Y-90935932D01*
X121340500Y-90935932D01*
X121340500Y-90935931D01*
X121315501Y-90810256D01*
X121266465Y-90691873D01*
X121195276Y-90585331D01*
X121104669Y-90494724D01*
X120998127Y-90423535D01*
X120998124Y-90423533D01*
X120998123Y-90423533D01*
X120879742Y-90374498D01*
X120879739Y-90374497D01*
X120789696Y-90356586D01*
X120754069Y-90349500D01*
X120025931Y-90349500D01*
X119994726Y-90355707D01*
X119900260Y-90374497D01*
X119900257Y-90374498D01*
X119781876Y-90423533D01*
X119675331Y-90494723D01*
X119675330Y-90494725D01*
X119584725Y-90585330D01*
X119584723Y-90585331D01*
X119513533Y-90691876D01*
X119464498Y-90810257D01*
X119464497Y-90810260D01*
X119439500Y-90935932D01*
X119250500Y-90935932D01*
X119250500Y-89494231D01*
X123464500Y-89494231D01*
X123464500Y-89645768D01*
X123503717Y-89792130D01*
X123503718Y-89792133D01*
X123503719Y-89792135D01*
X123579485Y-89923365D01*
X123686635Y-90030515D01*
X123817865Y-90106281D01*
X123964231Y-90145499D01*
X123964232Y-90145500D01*
X123964234Y-90145500D01*
X124115768Y-90145500D01*
X124115768Y-90145499D01*
X124262135Y-90106281D01*
X124393365Y-90030515D01*
X124500515Y-89923365D01*
X124576281Y-89792135D01*
X124615499Y-89645768D01*
X124615500Y-89645768D01*
X124615500Y-89494232D01*
X124615499Y-89494231D01*
X124576282Y-89347869D01*
X124576281Y-89347865D01*
X124500515Y-89216635D01*
X124393365Y-89109485D01*
X124393362Y-89109483D01*
X124262139Y-89033721D01*
X124262130Y-89033717D01*
X124115768Y-88994500D01*
X124115766Y-88994500D01*
X123964234Y-88994500D01*
X123964232Y-88994500D01*
X123817869Y-89033717D01*
X123817860Y-89033721D01*
X123686637Y-89109483D01*
X123579483Y-89216637D01*
X123503721Y-89347860D01*
X123503717Y-89347869D01*
X123464500Y-89494231D01*
X119250500Y-89494231D01*
X119250500Y-83714231D01*
X123464500Y-83714231D01*
X123464500Y-83865768D01*
X123503717Y-84012130D01*
X123503721Y-84012139D01*
X123579483Y-84143362D01*
X123579485Y-84143365D01*
X123686635Y-84250515D01*
X123817865Y-84326281D01*
X123964231Y-84365499D01*
X123964232Y-84365500D01*
X123964234Y-84365500D01*
X124115768Y-84365500D01*
X124115768Y-84365499D01*
X124262135Y-84326281D01*
X124393365Y-84250515D01*
X124500515Y-84143365D01*
X124576281Y-84012135D01*
X124615499Y-83865768D01*
X124615500Y-83865768D01*
X124615500Y-83714232D01*
X124615499Y-83714231D01*
X124606688Y-83681349D01*
X124576281Y-83567865D01*
X124500515Y-83436635D01*
X124393365Y-83329485D01*
X124393362Y-83329483D01*
X124262139Y-83253721D01*
X124262130Y-83253717D01*
X124115768Y-83214500D01*
X124115766Y-83214500D01*
X123964234Y-83214500D01*
X123964232Y-83214500D01*
X123817869Y-83253717D01*
X123817860Y-83253721D01*
X123686637Y-83329483D01*
X123579483Y-83436637D01*
X123503721Y-83567860D01*
X123503717Y-83567869D01*
X123464500Y-83714231D01*
X119250500Y-83714231D01*
X119250500Y-82295931D01*
X119439500Y-82295931D01*
X119439500Y-82424069D01*
X119444262Y-82448008D01*
X119464497Y-82549739D01*
X119464498Y-82549742D01*
X119511721Y-82663749D01*
X119513535Y-82668127D01*
X119584724Y-82774669D01*
X119675331Y-82865276D01*
X119781873Y-82936465D01*
X119900256Y-82985501D01*
X119900258Y-82985501D01*
X119900260Y-82985502D01*
X119942903Y-82993984D01*
X120025931Y-83010500D01*
X120025933Y-83010500D01*
X120754067Y-83010500D01*
X120754069Y-83010500D01*
X120879744Y-82985501D01*
X120998127Y-82936465D01*
X121104669Y-82865276D01*
X121195276Y-82774669D01*
X121266465Y-82668127D01*
X121315501Y-82549744D01*
X121340500Y-82424069D01*
X121340500Y-82295931D01*
X123369500Y-82295931D01*
X123369500Y-82424069D01*
X123374262Y-82448008D01*
X123394497Y-82549739D01*
X123394498Y-82549742D01*
X123441721Y-82663749D01*
X123443535Y-82668127D01*
X123514724Y-82774669D01*
X123605331Y-82865276D01*
X123711873Y-82936465D01*
X123830256Y-82985501D01*
X123830258Y-82985501D01*
X123830260Y-82985502D01*
X123872903Y-82993984D01*
X123955931Y-83010500D01*
X123955933Y-83010500D01*
X125184067Y-83010500D01*
X125184069Y-83010500D01*
X125309744Y-82985501D01*
X125428127Y-82936465D01*
X125534669Y-82865276D01*
X125607970Y-82791975D01*
X126051920Y-82791975D01*
X126070355Y-82920198D01*
X126070355Y-82920199D01*
X126070356Y-82920201D01*
X126124171Y-83038038D01*
X126209004Y-83135942D01*
X126317984Y-83205979D01*
X126421347Y-83236328D01*
X126465448Y-83271866D01*
X126474500Y-83307331D01*
X126474500Y-84969000D01*
X126452826Y-85021326D01*
X126440509Y-85031252D01*
X126401953Y-85056031D01*
X126401950Y-85056034D01*
X126317119Y-85153935D01*
X126263302Y-85271776D01*
X126244867Y-85400000D01*
X126263302Y-85528223D01*
X126263302Y-85528224D01*
X126263303Y-85528226D01*
X126317118Y-85646063D01*
X126401951Y-85743967D01*
X126510931Y-85814004D01*
X126635228Y-85850500D01*
X126764772Y-85850500D01*
X126889069Y-85814004D01*
X126998049Y-85743967D01*
X127082882Y-85646063D01*
X127136697Y-85528226D01*
X127155133Y-85400000D01*
X127136697Y-85271774D01*
X127082882Y-85153937D01*
X126998049Y-85056033D01*
X126998046Y-85056031D01*
X126959491Y-85031252D01*
X126927191Y-84984728D01*
X126925500Y-84969000D01*
X126925500Y-83000000D01*
X136844867Y-83000000D01*
X136863302Y-83128223D01*
X136863302Y-83128224D01*
X136863303Y-83128226D01*
X136917118Y-83246063D01*
X137001951Y-83343967D01*
X137110931Y-83414004D01*
X137235228Y-83450500D01*
X137364772Y-83450500D01*
X137489069Y-83414004D01*
X137598049Y-83343967D01*
X137641603Y-83293702D01*
X137678569Y-83251041D01*
X137729216Y-83225689D01*
X137734495Y-83225500D01*
X138072663Y-83225500D01*
X138124989Y-83247174D01*
X138143041Y-83276633D01*
X138172819Y-83368280D01*
X138267464Y-83532213D01*
X138267467Y-83532216D01*
X138360330Y-83635351D01*
X138394131Y-83672890D01*
X138547266Y-83784149D01*
X138547271Y-83784152D01*
X138688189Y-83846893D01*
X138720197Y-83861144D01*
X138905354Y-83900500D01*
X138905355Y-83900500D01*
X139094645Y-83900500D01*
X139094646Y-83900500D01*
X139279803Y-83861144D01*
X139452730Y-83784151D01*
X139605871Y-83672888D01*
X139732533Y-83532216D01*
X139827179Y-83368284D01*
X139885674Y-83188256D01*
X139905460Y-83000000D01*
X139885674Y-82811744D01*
X139827179Y-82631716D01*
X139775939Y-82542965D01*
X139732535Y-82467786D01*
X139732532Y-82467783D01*
X139714727Y-82448009D01*
X139605871Y-82327112D01*
X139605870Y-82327111D01*
X139605868Y-82327109D01*
X139452733Y-82215850D01*
X139452728Y-82215847D01*
X139279804Y-82138856D01*
X139279802Y-82138855D01*
X139134001Y-82107865D01*
X139094646Y-82099500D01*
X138905354Y-82099500D01*
X138872897Y-82106398D01*
X138720197Y-82138855D01*
X138720195Y-82138856D01*
X138547271Y-82215847D01*
X138547266Y-82215850D01*
X138394131Y-82327109D01*
X138267467Y-82467783D01*
X138267464Y-82467786D01*
X138172819Y-82631719D01*
X138143041Y-82723367D01*
X138106258Y-82766435D01*
X138072663Y-82774500D01*
X137734495Y-82774500D01*
X137682169Y-82752826D01*
X137678569Y-82748959D01*
X137598052Y-82656036D01*
X137598050Y-82656035D01*
X137598049Y-82656033D01*
X137531032Y-82612964D01*
X137489068Y-82585995D01*
X137364772Y-82549500D01*
X137235228Y-82549500D01*
X137110931Y-82585995D01*
X137001954Y-82656031D01*
X137001950Y-82656034D01*
X136917119Y-82753935D01*
X136863302Y-82871776D01*
X136844867Y-83000000D01*
X126925500Y-83000000D01*
X126925500Y-82976258D01*
X126932186Y-82945520D01*
X126943750Y-82920201D01*
X126962186Y-82791975D01*
X126943750Y-82663749D01*
X126889935Y-82545912D01*
X126805102Y-82448008D01*
X126738085Y-82404939D01*
X126696121Y-82377970D01*
X126571825Y-82341475D01*
X126442281Y-82341475D01*
X126317984Y-82377970D01*
X126209007Y-82448006D01*
X126209003Y-82448009D01*
X126124172Y-82545910D01*
X126124171Y-82545911D01*
X126124171Y-82545912D01*
X126105865Y-82585996D01*
X126070355Y-82663751D01*
X126051920Y-82791975D01*
X125607970Y-82791975D01*
X125625276Y-82774669D01*
X125696465Y-82668127D01*
X125745501Y-82549744D01*
X125770500Y-82424069D01*
X125770500Y-82295931D01*
X125755618Y-82221115D01*
X125745502Y-82170260D01*
X125745501Y-82170257D01*
X125738397Y-82153107D01*
X125696465Y-82051873D01*
X125625276Y-81945331D01*
X125534669Y-81854724D01*
X125518571Y-81843968D01*
X125445649Y-81795243D01*
X125428127Y-81783535D01*
X125428124Y-81783533D01*
X125428123Y-81783533D01*
X125309742Y-81734498D01*
X125309739Y-81734497D01*
X125219696Y-81716586D01*
X125184069Y-81709500D01*
X123955931Y-81709500D01*
X123924726Y-81715707D01*
X123830260Y-81734497D01*
X123830257Y-81734498D01*
X123711876Y-81783533D01*
X123605331Y-81854723D01*
X123605330Y-81854725D01*
X123514725Y-81945330D01*
X123514723Y-81945331D01*
X123443533Y-82051876D01*
X123394498Y-82170257D01*
X123394497Y-82170260D01*
X123384382Y-82221115D01*
X123369500Y-82295931D01*
X121340500Y-82295931D01*
X121325618Y-82221115D01*
X121315502Y-82170260D01*
X121315501Y-82170257D01*
X121308397Y-82153107D01*
X121266465Y-82051873D01*
X121195276Y-81945331D01*
X121104669Y-81854724D01*
X121088571Y-81843968D01*
X121015649Y-81795243D01*
X120998127Y-81783535D01*
X120998124Y-81783533D01*
X120998123Y-81783533D01*
X120879742Y-81734498D01*
X120879739Y-81734497D01*
X120789696Y-81716586D01*
X120754069Y-81709500D01*
X120025931Y-81709500D01*
X119994726Y-81715707D01*
X119900260Y-81734497D01*
X119900257Y-81734498D01*
X119781876Y-81783533D01*
X119675331Y-81854723D01*
X119675330Y-81854725D01*
X119584725Y-81945330D01*
X119584723Y-81945331D01*
X119513533Y-82051876D01*
X119464498Y-82170257D01*
X119464497Y-82170260D01*
X119454382Y-82221115D01*
X119439500Y-82295931D01*
X119250500Y-82295931D01*
X119250500Y-80600000D01*
X136844867Y-80600000D01*
X136863302Y-80728223D01*
X136863302Y-80728224D01*
X136863303Y-80728226D01*
X136917118Y-80846063D01*
X137001951Y-80943967D01*
X137070075Y-80987747D01*
X137102376Y-81034270D01*
X137092320Y-81090008D01*
X137070076Y-81112251D01*
X137001954Y-81156031D01*
X137001951Y-81156033D01*
X137001950Y-81156034D01*
X136917119Y-81253935D01*
X136863302Y-81371776D01*
X136844867Y-81500000D01*
X136863302Y-81628223D01*
X136863302Y-81628224D01*
X136863303Y-81628226D01*
X136917118Y-81746063D01*
X137001951Y-81843967D01*
X137110931Y-81914004D01*
X137235228Y-81950500D01*
X137364772Y-81950500D01*
X137489069Y-81914004D01*
X137598049Y-81843967D01*
X137650415Y-81783533D01*
X137678569Y-81751041D01*
X137729216Y-81725689D01*
X137734495Y-81725500D01*
X139975943Y-81725500D01*
X140028269Y-81747174D01*
X140783909Y-82502815D01*
X140805583Y-82555141D01*
X140795669Y-82592140D01*
X140772819Y-82631717D01*
X140714327Y-82811738D01*
X140714326Y-82811742D01*
X140714326Y-82811744D01*
X140694540Y-83000000D01*
X140708016Y-83128223D01*
X140714327Y-83188261D01*
X140772819Y-83368280D01*
X140867464Y-83532213D01*
X140867467Y-83532216D01*
X140960330Y-83635351D01*
X140994131Y-83672890D01*
X141147266Y-83784149D01*
X141147271Y-83784152D01*
X141288189Y-83846893D01*
X141320197Y-83861144D01*
X141505354Y-83900500D01*
X141505355Y-83900500D01*
X141694645Y-83900500D01*
X141694646Y-83900500D01*
X141879803Y-83861144D01*
X142052730Y-83784151D01*
X142205871Y-83672888D01*
X142332533Y-83532216D01*
X142427179Y-83368284D01*
X142485674Y-83188256D01*
X142505460Y-83000000D01*
X142485674Y-82811744D01*
X142427179Y-82631716D01*
X142375939Y-82542965D01*
X142332535Y-82467786D01*
X142332532Y-82467783D01*
X142314727Y-82448009D01*
X142205871Y-82327112D01*
X142205870Y-82327111D01*
X142205868Y-82327109D01*
X142052733Y-82215850D01*
X142052728Y-82215847D01*
X141879804Y-82138856D01*
X141879802Y-82138855D01*
X141734001Y-82107865D01*
X141694646Y-82099500D01*
X141505354Y-82099500D01*
X141472897Y-82106398D01*
X141320197Y-82138855D01*
X141320195Y-82138856D01*
X141185072Y-82199017D01*
X141128454Y-82200500D01*
X141102647Y-82183741D01*
X140301578Y-81382673D01*
X140301578Y-81382672D01*
X140227738Y-81308832D01*
X140227736Y-81308830D01*
X140203460Y-81298774D01*
X140203458Y-81298773D01*
X140203458Y-81298772D01*
X140144855Y-81274499D01*
X140055145Y-81274499D01*
X140046533Y-81274499D01*
X140046525Y-81274500D01*
X137734495Y-81274500D01*
X137682169Y-81252826D01*
X137678569Y-81248959D01*
X137598052Y-81156036D01*
X137598050Y-81156035D01*
X137598049Y-81156033D01*
X137529924Y-81112252D01*
X137497623Y-81065730D01*
X137507679Y-81009993D01*
X137529923Y-80987748D01*
X137598049Y-80943967D01*
X137678569Y-80851041D01*
X137729216Y-80825689D01*
X137734495Y-80825500D01*
X141675943Y-80825500D01*
X141728269Y-80847174D01*
X143383909Y-82502814D01*
X143405583Y-82555140D01*
X143395670Y-82592138D01*
X143372819Y-82631718D01*
X143314327Y-82811738D01*
X143314326Y-82811742D01*
X143314326Y-82811744D01*
X143294540Y-83000000D01*
X143308016Y-83128223D01*
X143314327Y-83188261D01*
X143372819Y-83368280D01*
X143467464Y-83532213D01*
X143467467Y-83532216D01*
X143560330Y-83635351D01*
X143594131Y-83672890D01*
X143747266Y-83784149D01*
X143747271Y-83784152D01*
X143888189Y-83846893D01*
X143920197Y-83861144D01*
X144105354Y-83900500D01*
X144105355Y-83900500D01*
X144294645Y-83900500D01*
X144294646Y-83900500D01*
X144479803Y-83861144D01*
X144652730Y-83784151D01*
X144805871Y-83672888D01*
X144932533Y-83532216D01*
X145027179Y-83368284D01*
X145085674Y-83188256D01*
X145105460Y-83000000D01*
X145894540Y-83000000D01*
X145908016Y-83128223D01*
X145914327Y-83188261D01*
X145972819Y-83368280D01*
X146067464Y-83532213D01*
X146067467Y-83532216D01*
X146160330Y-83635351D01*
X146194131Y-83672890D01*
X146347266Y-83784149D01*
X146347271Y-83784152D01*
X146488189Y-83846893D01*
X146520197Y-83861144D01*
X146705354Y-83900500D01*
X146705355Y-83900500D01*
X146894645Y-83900500D01*
X146894646Y-83900500D01*
X147079803Y-83861144D01*
X147252730Y-83784151D01*
X147405871Y-83672888D01*
X147532533Y-83532216D01*
X147627179Y-83368284D01*
X147685674Y-83188256D01*
X147705460Y-83000000D01*
X162345156Y-83000000D01*
X162364512Y-83320004D01*
X162422302Y-83635351D01*
X162517675Y-83941414D01*
X162649249Y-84233762D01*
X162649253Y-84233771D01*
X162815106Y-84508123D01*
X163012821Y-84760487D01*
X163020101Y-84767767D01*
X163980035Y-83807832D01*
X164008415Y-83846893D01*
X164153107Y-83991585D01*
X164192167Y-84019964D01*
X163232233Y-84979899D01*
X163239512Y-84987178D01*
X163491876Y-85184893D01*
X163766228Y-85350746D01*
X163766237Y-85350750D01*
X164058585Y-85482324D01*
X164364648Y-85577697D01*
X164679995Y-85635487D01*
X165000000Y-85654843D01*
X165320004Y-85635487D01*
X165635351Y-85577697D01*
X165941414Y-85482324D01*
X166233762Y-85350750D01*
X166233771Y-85350746D01*
X166508123Y-85184893D01*
X166760487Y-84987178D01*
X166767767Y-84979899D01*
X165807832Y-84019964D01*
X165846893Y-83991585D01*
X165991585Y-83846893D01*
X166019964Y-83807832D01*
X166979899Y-84767767D01*
X166987178Y-84760487D01*
X167184893Y-84508123D01*
X167350746Y-84233771D01*
X167350750Y-84233762D01*
X167482324Y-83941414D01*
X167577697Y-83635351D01*
X167635487Y-83320004D01*
X167654843Y-83000000D01*
X167635487Y-82679995D01*
X167577697Y-82364648D01*
X167482324Y-82058585D01*
X167350750Y-81766237D01*
X167350746Y-81766228D01*
X167184893Y-81491876D01*
X166987178Y-81239512D01*
X166979899Y-81232233D01*
X166019964Y-82192167D01*
X165991585Y-82153107D01*
X165846893Y-82008415D01*
X165807832Y-81980035D01*
X166767767Y-81020101D01*
X166760487Y-81012821D01*
X166508123Y-80815106D01*
X166233771Y-80649253D01*
X166233762Y-80649249D01*
X165941414Y-80517675D01*
X165635351Y-80422302D01*
X165320004Y-80364512D01*
X165000000Y-80345156D01*
X164679995Y-80364512D01*
X164364648Y-80422302D01*
X164058585Y-80517675D01*
X163766237Y-80649249D01*
X163766228Y-80649253D01*
X163491876Y-80815106D01*
X163239512Y-81012821D01*
X163232233Y-81020101D01*
X164192167Y-81980035D01*
X164153107Y-82008415D01*
X164008415Y-82153107D01*
X163980035Y-82192167D01*
X163020101Y-81232233D01*
X163012821Y-81239512D01*
X162815106Y-81491876D01*
X162649253Y-81766228D01*
X162649249Y-81766237D01*
X162517675Y-82058585D01*
X162422302Y-82364648D01*
X162364512Y-82679995D01*
X162345156Y-83000000D01*
X147705460Y-83000000D01*
X147685674Y-82811744D01*
X147627179Y-82631716D01*
X147575939Y-82542965D01*
X147532535Y-82467786D01*
X147532532Y-82467783D01*
X147514727Y-82448009D01*
X147405871Y-82327112D01*
X147405870Y-82327111D01*
X147405868Y-82327109D01*
X147252733Y-82215850D01*
X147252728Y-82215847D01*
X147079804Y-82138856D01*
X147079802Y-82138855D01*
X146934001Y-82107865D01*
X146894646Y-82099500D01*
X146705354Y-82099500D01*
X146672897Y-82106398D01*
X146520197Y-82138855D01*
X146520195Y-82138856D01*
X146347271Y-82215847D01*
X146347266Y-82215850D01*
X146194131Y-82327109D01*
X146067467Y-82467783D01*
X146067464Y-82467786D01*
X145972819Y-82631719D01*
X145914327Y-82811738D01*
X145914326Y-82811742D01*
X145914326Y-82811744D01*
X145894540Y-83000000D01*
X145105460Y-83000000D01*
X145085674Y-82811744D01*
X145027179Y-82631716D01*
X144975939Y-82542965D01*
X144932535Y-82467786D01*
X144932532Y-82467783D01*
X144914727Y-82448009D01*
X144805871Y-82327112D01*
X144805870Y-82327111D01*
X144805868Y-82327109D01*
X144652733Y-82215850D01*
X144652728Y-82215847D01*
X144479804Y-82138856D01*
X144479802Y-82138855D01*
X144334001Y-82107865D01*
X144294646Y-82099500D01*
X144105354Y-82099500D01*
X144072897Y-82106398D01*
X143920197Y-82138855D01*
X143920195Y-82138856D01*
X143785072Y-82199018D01*
X143728454Y-82200501D01*
X143702647Y-82183742D01*
X142001578Y-80482673D01*
X142001578Y-80482672D01*
X141927738Y-80408832D01*
X141927736Y-80408830D01*
X141903460Y-80398774D01*
X141903458Y-80398773D01*
X141903458Y-80398772D01*
X141844855Y-80374499D01*
X141755145Y-80374499D01*
X141746533Y-80374499D01*
X141746525Y-80374500D01*
X137734495Y-80374500D01*
X137682169Y-80352826D01*
X137678569Y-80348959D01*
X137598052Y-80256036D01*
X137598050Y-80256035D01*
X137598049Y-80256033D01*
X137531032Y-80212964D01*
X137489068Y-80185995D01*
X137364772Y-80149500D01*
X137235228Y-80149500D01*
X137110931Y-80185995D01*
X137001954Y-80256031D01*
X137001950Y-80256034D01*
X136917119Y-80353935D01*
X136863302Y-80471776D01*
X136844867Y-80600000D01*
X119250500Y-80600000D01*
X119250500Y-78606501D01*
X122918130Y-78606501D01*
X122949852Y-78622665D01*
X123075000Y-78642486D01*
X123200148Y-78622665D01*
X123200151Y-78622663D01*
X123231869Y-78606501D01*
X123668129Y-78606501D01*
X123699852Y-78622665D01*
X123825000Y-78642486D01*
X123950148Y-78622665D01*
X123950151Y-78622663D01*
X123981869Y-78606501D01*
X124418130Y-78606501D01*
X124449852Y-78622665D01*
X124575000Y-78642486D01*
X124700148Y-78622665D01*
X124700151Y-78622663D01*
X124731869Y-78606501D01*
X124575000Y-78449632D01*
X124418130Y-78606501D01*
X123981869Y-78606501D01*
X123825000Y-78449632D01*
X123668129Y-78606501D01*
X123231869Y-78606501D01*
X123075000Y-78449632D01*
X122918130Y-78606501D01*
X119250500Y-78606501D01*
X119250500Y-78237500D01*
X122670014Y-78237500D01*
X122689834Y-78362646D01*
X122689835Y-78362648D01*
X122705997Y-78394368D01*
X122862867Y-78237499D01*
X122842977Y-78217609D01*
X122975000Y-78217609D01*
X122975000Y-78257391D01*
X122990224Y-78294145D01*
X123018355Y-78322276D01*
X123055109Y-78337500D01*
X123094891Y-78337500D01*
X123131645Y-78322276D01*
X123159776Y-78294145D01*
X123175000Y-78257391D01*
X123175000Y-78237499D01*
X123287131Y-78237499D01*
X123444884Y-78395251D01*
X123455115Y-78395251D01*
X123612867Y-78237499D01*
X123592977Y-78217609D01*
X123725000Y-78217609D01*
X123725000Y-78257391D01*
X123740224Y-78294145D01*
X123768355Y-78322276D01*
X123805109Y-78337500D01*
X123844891Y-78337500D01*
X123881645Y-78322276D01*
X123909776Y-78294145D01*
X123925000Y-78257391D01*
X123925000Y-78237499D01*
X124037132Y-78237499D01*
X124194884Y-78395251D01*
X124205115Y-78395251D01*
X124362867Y-78237499D01*
X124342977Y-78217609D01*
X124475000Y-78217609D01*
X124475000Y-78257391D01*
X124490224Y-78294145D01*
X124518355Y-78322276D01*
X124555109Y-78337500D01*
X124594891Y-78337500D01*
X124631645Y-78322276D01*
X124659776Y-78294145D01*
X124675000Y-78257391D01*
X124675000Y-78237499D01*
X124787132Y-78237499D01*
X124787132Y-78237500D01*
X124944001Y-78394369D01*
X124960163Y-78362651D01*
X124960165Y-78362648D01*
X124979986Y-78237500D01*
X124979986Y-78237499D01*
X124960165Y-78112352D01*
X124944001Y-78080630D01*
X124787132Y-78237499D01*
X124675000Y-78237499D01*
X124675000Y-78217609D01*
X124659776Y-78180855D01*
X124631645Y-78152724D01*
X124594891Y-78137500D01*
X124555109Y-78137500D01*
X124518355Y-78152724D01*
X124490224Y-78180855D01*
X124475000Y-78217609D01*
X124342977Y-78217609D01*
X124205114Y-78079747D01*
X124194884Y-78079747D01*
X124037132Y-78237499D01*
X123925000Y-78237499D01*
X123925000Y-78217609D01*
X123909776Y-78180855D01*
X123881645Y-78152724D01*
X123844891Y-78137500D01*
X123805109Y-78137500D01*
X123768355Y-78152724D01*
X123740224Y-78180855D01*
X123725000Y-78217609D01*
X123592977Y-78217609D01*
X123455114Y-78079747D01*
X123444884Y-78079747D01*
X123287131Y-78237499D01*
X123175000Y-78237499D01*
X123175000Y-78217609D01*
X123159776Y-78180855D01*
X123131645Y-78152724D01*
X123094891Y-78137500D01*
X123055109Y-78137500D01*
X123018355Y-78152724D01*
X122990224Y-78180855D01*
X122975000Y-78217609D01*
X122842977Y-78217609D01*
X122705997Y-78080630D01*
X122689835Y-78112349D01*
X122689835Y-78112351D01*
X122670014Y-78237500D01*
X119250500Y-78237500D01*
X119250500Y-77868497D01*
X122918130Y-77868497D01*
X123074999Y-78025367D01*
X123231868Y-77868497D01*
X123668130Y-77868497D01*
X123824999Y-78025367D01*
X123981868Y-77868497D01*
X124418130Y-77868497D01*
X124574999Y-78025367D01*
X124731868Y-77868497D01*
X124700148Y-77852335D01*
X124700146Y-77852334D01*
X124575000Y-77832514D01*
X124449851Y-77852335D01*
X124449849Y-77852335D01*
X124418130Y-77868497D01*
X123981868Y-77868497D01*
X123950148Y-77852335D01*
X123950146Y-77852334D01*
X123825000Y-77832514D01*
X123699851Y-77852335D01*
X123699849Y-77852335D01*
X123668130Y-77868497D01*
X123231868Y-77868497D01*
X123200148Y-77852335D01*
X123200146Y-77852334D01*
X123075000Y-77832514D01*
X122949851Y-77852335D01*
X122949849Y-77852335D01*
X122918130Y-77868497D01*
X119250500Y-77868497D01*
X119250500Y-77500000D01*
X137044867Y-77500000D01*
X137063302Y-77628223D01*
X137063302Y-77628224D01*
X137063303Y-77628226D01*
X137117118Y-77746063D01*
X137201948Y-77843964D01*
X137201954Y-77843970D01*
X137202079Y-77844078D01*
X137202121Y-77844162D01*
X137205417Y-77847966D01*
X137204445Y-77848807D01*
X137227427Y-77894726D01*
X137209537Y-77948464D01*
X137202079Y-77955922D01*
X137201954Y-77956029D01*
X137117119Y-78053935D01*
X137063302Y-78171776D01*
X137044867Y-78300000D01*
X137063302Y-78428223D01*
X137063302Y-78428224D01*
X137063303Y-78428226D01*
X137117118Y-78546063D01*
X137201951Y-78643967D01*
X137310931Y-78714004D01*
X137435228Y-78750500D01*
X137564772Y-78750500D01*
X137689069Y-78714004D01*
X137798049Y-78643967D01*
X137878569Y-78551041D01*
X137929216Y-78525689D01*
X137934495Y-78525500D01*
X140546525Y-78525500D01*
X140546533Y-78525501D01*
X140555145Y-78525501D01*
X140644854Y-78525501D01*
X140644855Y-78525501D01*
X140703460Y-78501225D01*
X140727736Y-78491170D01*
X140791170Y-78427736D01*
X140791170Y-78427735D01*
X140801575Y-78417330D01*
X140801577Y-78417327D01*
X143702647Y-75516256D01*
X143754972Y-75494583D01*
X143785069Y-75500980D01*
X143920197Y-75561144D01*
X144105354Y-75600500D01*
X144105355Y-75600500D01*
X144294645Y-75600500D01*
X144294646Y-75600500D01*
X144479803Y-75561144D01*
X144652730Y-75484151D01*
X144659980Y-75478884D01*
X144722315Y-75433595D01*
X146278536Y-75433595D01*
X146347519Y-75483715D01*
X146347525Y-75483718D01*
X146520349Y-75560664D01*
X146520353Y-75560665D01*
X146705408Y-75600000D01*
X146894592Y-75600000D01*
X147079646Y-75560665D01*
X147079650Y-75560664D01*
X147252473Y-75483718D01*
X147252479Y-75483715D01*
X147321462Y-75433595D01*
X147321463Y-75433595D01*
X146800000Y-74912132D01*
X146278536Y-75433595D01*
X144722315Y-75433595D01*
X144805868Y-75372890D01*
X144805867Y-75372890D01*
X144805871Y-75372888D01*
X144932533Y-75232216D01*
X144936411Y-75225500D01*
X144975939Y-75157034D01*
X145027179Y-75068284D01*
X145085674Y-74888256D01*
X145105460Y-74700000D01*
X145895043Y-74700000D01*
X145914819Y-74888155D01*
X145973279Y-75068076D01*
X146063507Y-75224357D01*
X146587867Y-74699999D01*
X147012132Y-74699999D01*
X147012132Y-74700000D01*
X147536491Y-75224359D01*
X147626720Y-75068076D01*
X147685180Y-74888155D01*
X147704956Y-74700000D01*
X147685180Y-74511844D01*
X147626720Y-74331923D01*
X147536491Y-74175639D01*
X147012132Y-74699999D01*
X146587867Y-74699999D01*
X146063507Y-74175640D01*
X145973280Y-74331921D01*
X145914819Y-74511844D01*
X145895043Y-74700000D01*
X145105460Y-74700000D01*
X145085674Y-74511744D01*
X145027179Y-74331716D01*
X144937069Y-74175640D01*
X144932535Y-74167786D01*
X144932532Y-74167783D01*
X144805871Y-74027112D01*
X144805870Y-74027111D01*
X144805868Y-74027109D01*
X144722313Y-73966403D01*
X146278536Y-73966403D01*
X146278536Y-73966404D01*
X146799999Y-74487867D01*
X147321462Y-73966403D01*
X147252480Y-73916284D01*
X147252474Y-73916281D01*
X147079650Y-73839335D01*
X147079646Y-73839334D01*
X146894592Y-73800000D01*
X146705408Y-73800000D01*
X146520352Y-73839334D01*
X146520351Y-73839335D01*
X146347524Y-73916283D01*
X146347520Y-73916285D01*
X146278536Y-73966403D01*
X144722313Y-73966403D01*
X144652733Y-73915850D01*
X144652728Y-73915847D01*
X144479804Y-73838856D01*
X144479802Y-73838855D01*
X144334001Y-73807865D01*
X144294646Y-73799500D01*
X144105354Y-73799500D01*
X144072897Y-73806398D01*
X143920197Y-73838855D01*
X143920195Y-73838856D01*
X143747271Y-73915847D01*
X143747266Y-73915850D01*
X143594131Y-74027109D01*
X143467467Y-74167783D01*
X143467464Y-74167786D01*
X143372819Y-74331719D01*
X143314327Y-74511738D01*
X143314326Y-74511742D01*
X143314326Y-74511744D01*
X143294540Y-74700000D01*
X143314315Y-74888155D01*
X143314327Y-74888261D01*
X143372819Y-75068280D01*
X143395669Y-75107858D01*
X143403061Y-75164011D01*
X143383909Y-75197184D01*
X140528269Y-78052826D01*
X140475943Y-78074500D01*
X137934495Y-78074500D01*
X137882169Y-78052826D01*
X137878569Y-78048959D01*
X137798051Y-77956035D01*
X137797927Y-77955928D01*
X137797884Y-77955843D01*
X137794583Y-77952033D01*
X137795555Y-77951190D01*
X137772573Y-77905283D01*
X137790456Y-77851543D01*
X137797927Y-77844072D01*
X137798043Y-77843970D01*
X137798049Y-77843967D01*
X137878569Y-77751041D01*
X137929216Y-77725689D01*
X137934495Y-77725500D01*
X138746525Y-77725500D01*
X138746533Y-77725501D01*
X138755145Y-77725501D01*
X138844854Y-77725501D01*
X138844855Y-77725501D01*
X138903460Y-77701225D01*
X138927736Y-77691170D01*
X138991170Y-77627736D01*
X138991170Y-77627735D01*
X139001575Y-77617330D01*
X139001577Y-77617327D01*
X141102647Y-75516256D01*
X141154972Y-75494583D01*
X141185069Y-75500980D01*
X141320197Y-75561144D01*
X141505354Y-75600500D01*
X141505355Y-75600500D01*
X141694645Y-75600500D01*
X141694646Y-75600500D01*
X141879803Y-75561144D01*
X142052730Y-75484151D01*
X142059980Y-75478884D01*
X142205868Y-75372890D01*
X142205867Y-75372890D01*
X142205871Y-75372888D01*
X142332533Y-75232216D01*
X142336411Y-75225500D01*
X142375939Y-75157034D01*
X142427179Y-75068284D01*
X142485674Y-74888256D01*
X142505460Y-74700000D01*
X142485674Y-74511744D01*
X142427179Y-74331716D01*
X142337069Y-74175640D01*
X142332535Y-74167786D01*
X142332532Y-74167783D01*
X142205871Y-74027112D01*
X142205870Y-74027111D01*
X142205868Y-74027109D01*
X142052733Y-73915850D01*
X142052728Y-73915847D01*
X141879804Y-73838856D01*
X141879802Y-73838855D01*
X141734001Y-73807865D01*
X141694646Y-73799500D01*
X141505354Y-73799500D01*
X141472897Y-73806398D01*
X141320197Y-73838855D01*
X141320195Y-73838856D01*
X141147271Y-73915847D01*
X141147266Y-73915850D01*
X140994131Y-74027109D01*
X140867467Y-74167783D01*
X140867464Y-74167786D01*
X140772819Y-74331719D01*
X140714327Y-74511738D01*
X140714326Y-74511742D01*
X140714326Y-74511744D01*
X140694540Y-74700000D01*
X140714315Y-74888155D01*
X140714327Y-74888261D01*
X140772819Y-75068280D01*
X140795669Y-75107858D01*
X140803061Y-75164011D01*
X140783909Y-75197184D01*
X138728269Y-77252826D01*
X138675943Y-77274500D01*
X137934495Y-77274500D01*
X137882169Y-77252826D01*
X137878569Y-77248959D01*
X137798052Y-77156036D01*
X137798050Y-77156035D01*
X137798049Y-77156033D01*
X137731032Y-77112964D01*
X137689068Y-77085995D01*
X137564772Y-77049500D01*
X137435228Y-77049500D01*
X137310931Y-77085995D01*
X137201954Y-77156031D01*
X137201950Y-77156034D01*
X137117119Y-77253935D01*
X137063302Y-77371776D01*
X137044867Y-77500000D01*
X119250500Y-77500000D01*
X119250500Y-74900000D01*
X128944867Y-74900000D01*
X128963302Y-75028223D01*
X128963302Y-75028224D01*
X128963303Y-75028226D01*
X129017118Y-75146063D01*
X129101951Y-75243967D01*
X129210931Y-75314004D01*
X129335228Y-75350500D01*
X129464772Y-75350500D01*
X129589069Y-75314004D01*
X129698049Y-75243967D01*
X129698052Y-75243963D01*
X129698499Y-75243577D01*
X129698871Y-75243437D01*
X129702502Y-75241105D01*
X129703009Y-75241894D01*
X129746961Y-75225500D01*
X133065505Y-75225500D01*
X133117831Y-75247174D01*
X133121431Y-75251041D01*
X133201947Y-75343963D01*
X133201948Y-75343964D01*
X133201951Y-75343967D01*
X133310931Y-75414004D01*
X133435228Y-75450500D01*
X133564772Y-75450500D01*
X133689069Y-75414004D01*
X133798049Y-75343967D01*
X133882882Y-75246063D01*
X133936697Y-75128226D01*
X133955133Y-75000000D01*
X133936697Y-74871774D01*
X133882882Y-74753937D01*
X133836146Y-74700000D01*
X136744867Y-74700000D01*
X136763302Y-74828223D01*
X136763302Y-74828224D01*
X136763303Y-74828226D01*
X136817118Y-74946063D01*
X136901951Y-75043967D01*
X137010931Y-75114004D01*
X137135228Y-75150500D01*
X137264772Y-75150500D01*
X137389069Y-75114004D01*
X137498049Y-75043967D01*
X137541603Y-74993702D01*
X137578569Y-74951041D01*
X137629216Y-74925689D01*
X137634495Y-74925500D01*
X138072663Y-74925500D01*
X138124989Y-74947174D01*
X138143041Y-74976633D01*
X138172819Y-75068280D01*
X138267464Y-75232213D01*
X138267467Y-75232216D01*
X138341109Y-75314004D01*
X138394131Y-75372890D01*
X138547266Y-75484149D01*
X138547271Y-75484152D01*
X138619380Y-75516257D01*
X138720197Y-75561144D01*
X138905354Y-75600500D01*
X138905355Y-75600500D01*
X139094645Y-75600500D01*
X139094646Y-75600500D01*
X139279803Y-75561144D01*
X139452730Y-75484151D01*
X139459980Y-75478884D01*
X139605868Y-75372890D01*
X139605867Y-75372890D01*
X139605871Y-75372888D01*
X139732533Y-75232216D01*
X139736411Y-75225500D01*
X139775939Y-75157034D01*
X139827179Y-75068284D01*
X139885674Y-74888256D01*
X139905460Y-74700000D01*
X139885674Y-74511744D01*
X139827179Y-74331716D01*
X139737069Y-74175640D01*
X139732535Y-74167786D01*
X139732532Y-74167783D01*
X139605871Y-74027112D01*
X139605870Y-74027111D01*
X139605868Y-74027109D01*
X139452733Y-73915850D01*
X139452728Y-73915847D01*
X139279804Y-73838856D01*
X139279802Y-73838855D01*
X139134001Y-73807865D01*
X139094646Y-73799500D01*
X138905354Y-73799500D01*
X138872897Y-73806398D01*
X138720197Y-73838855D01*
X138720195Y-73838856D01*
X138547271Y-73915847D01*
X138547266Y-73915850D01*
X138394131Y-74027109D01*
X138267467Y-74167783D01*
X138267464Y-74167786D01*
X138172819Y-74331719D01*
X138143041Y-74423367D01*
X138106258Y-74466435D01*
X138072663Y-74474500D01*
X137634495Y-74474500D01*
X137582169Y-74452826D01*
X137578569Y-74448959D01*
X137498052Y-74356036D01*
X137498050Y-74356035D01*
X137498049Y-74356033D01*
X137431032Y-74312964D01*
X137389068Y-74285995D01*
X137264772Y-74249500D01*
X137135228Y-74249500D01*
X137010931Y-74285995D01*
X136901954Y-74356031D01*
X136901950Y-74356034D01*
X136817119Y-74453935D01*
X136763302Y-74571776D01*
X136744867Y-74700000D01*
X133836146Y-74700000D01*
X133798049Y-74656033D01*
X133731032Y-74612964D01*
X133689068Y-74585995D01*
X133564772Y-74549500D01*
X133435228Y-74549500D01*
X133310931Y-74585995D01*
X133201954Y-74656031D01*
X133201947Y-74656036D01*
X133121431Y-74748959D01*
X133070784Y-74774311D01*
X133065505Y-74774500D01*
X129885498Y-74774500D01*
X129833172Y-74752826D01*
X129818187Y-74731245D01*
X129782882Y-74653937D01*
X129698049Y-74556033D01*
X129629124Y-74511738D01*
X129589068Y-74485995D01*
X129464772Y-74449500D01*
X129335228Y-74449500D01*
X129210931Y-74485995D01*
X129101954Y-74556031D01*
X129101950Y-74556034D01*
X129017119Y-74653935D01*
X128963302Y-74771776D01*
X128944867Y-74900000D01*
X119250500Y-74900000D01*
X119250500Y-71002083D01*
X119250558Y-70999999D01*
X119594754Y-70999999D01*
X119594754Y-71000000D01*
X119613719Y-71301447D01*
X119613722Y-71301470D01*
X119670318Y-71598157D01*
X119670322Y-71598173D01*
X119763654Y-71885419D01*
X119763656Y-71885423D01*
X119892267Y-72158737D01*
X120054114Y-72413767D01*
X120246647Y-72646500D01*
X120246650Y-72646502D01*
X120246651Y-72646504D01*
X120466838Y-72853274D01*
X120711205Y-73030816D01*
X120975896Y-73176332D01*
X121170142Y-73253239D01*
X121256730Y-73287522D01*
X121256734Y-73287524D01*
X121256738Y-73287525D01*
X121549302Y-73362642D01*
X121549298Y-73362642D01*
X121848965Y-73400499D01*
X121848972Y-73400500D01*
X121848973Y-73400500D01*
X122151028Y-73400500D01*
X122151031Y-73400499D01*
X122450698Y-73362642D01*
X122743262Y-73287525D01*
X123024104Y-73176332D01*
X123288795Y-73030816D01*
X123473618Y-72896535D01*
X135699500Y-72896535D01*
X135699500Y-73103464D01*
X135739868Y-73306413D01*
X135739870Y-73306420D01*
X135819059Y-73497598D01*
X135934023Y-73669655D01*
X136080345Y-73815977D01*
X136252402Y-73930941D01*
X136443580Y-74010130D01*
X136646535Y-74050500D01*
X136646536Y-74050500D01*
X136853464Y-74050500D01*
X136853465Y-74050500D01*
X137056420Y-74010130D01*
X137247598Y-73930941D01*
X137419655Y-73815977D01*
X137565977Y-73669655D01*
X137680941Y-73497598D01*
X137760130Y-73306420D01*
X137800500Y-73103465D01*
X137800500Y-72896535D01*
X137760130Y-72693580D01*
X137680941Y-72502402D01*
X137565977Y-72330345D01*
X137419655Y-72184023D01*
X137247598Y-72069059D01*
X137056420Y-71989870D01*
X137056413Y-71989868D01*
X136903516Y-71959455D01*
X136853465Y-71949500D01*
X136646535Y-71949500D01*
X136606385Y-71957486D01*
X136443586Y-71989868D01*
X136443579Y-71989870D01*
X136252401Y-72069059D01*
X136080345Y-72184022D01*
X136080344Y-72184024D01*
X135934024Y-72330344D01*
X135934022Y-72330345D01*
X135819059Y-72502401D01*
X135739870Y-72693579D01*
X135739868Y-72693586D01*
X135699500Y-72896535D01*
X123473618Y-72896535D01*
X123533162Y-72853274D01*
X123753349Y-72646504D01*
X123945885Y-72413768D01*
X124107733Y-72158736D01*
X124236341Y-71885430D01*
X124329681Y-71598160D01*
X124386280Y-71301457D01*
X124405246Y-71000000D01*
X124405246Y-70999999D01*
X163594754Y-70999999D01*
X163594754Y-71000000D01*
X163613719Y-71301447D01*
X163613722Y-71301470D01*
X163670318Y-71598157D01*
X163670322Y-71598173D01*
X163763654Y-71885419D01*
X163763656Y-71885423D01*
X163892267Y-72158737D01*
X164054114Y-72413767D01*
X164246647Y-72646500D01*
X164246650Y-72646502D01*
X164246651Y-72646504D01*
X164466838Y-72853274D01*
X164711205Y-73030816D01*
X164975896Y-73176332D01*
X165170142Y-73253239D01*
X165256730Y-73287522D01*
X165256734Y-73287524D01*
X165256738Y-73287525D01*
X165549302Y-73362642D01*
X165549298Y-73362642D01*
X165848965Y-73400499D01*
X165848972Y-73400500D01*
X165848973Y-73400500D01*
X166151028Y-73400500D01*
X166151031Y-73400499D01*
X166450698Y-73362642D01*
X166743262Y-73287525D01*
X167024104Y-73176332D01*
X167288795Y-73030816D01*
X167533162Y-72853274D01*
X167753349Y-72646504D01*
X167945885Y-72413768D01*
X168107733Y-72158736D01*
X168236341Y-71885430D01*
X168329681Y-71598160D01*
X168386280Y-71301457D01*
X168405246Y-71000000D01*
X168386280Y-70698543D01*
X168329681Y-70401840D01*
X168329678Y-70401833D01*
X168329677Y-70401826D01*
X168236345Y-70114580D01*
X168236343Y-70114576D01*
X168236342Y-70114575D01*
X168236341Y-70114570D01*
X168107733Y-69841264D01*
X168102822Y-69833526D01*
X167945885Y-69586232D01*
X167753352Y-69353499D01*
X167684772Y-69289098D01*
X167533162Y-69146726D01*
X167404215Y-69053041D01*
X167288800Y-68969187D01*
X167024104Y-68823668D01*
X167024097Y-68823665D01*
X166743269Y-68712477D01*
X166743265Y-68712475D01*
X166450696Y-68637357D01*
X166450701Y-68637357D01*
X166151034Y-68599500D01*
X166151027Y-68599500D01*
X165848973Y-68599500D01*
X165848965Y-68599500D01*
X165549301Y-68637357D01*
X165256734Y-68712475D01*
X165256730Y-68712477D01*
X164975902Y-68823665D01*
X164975895Y-68823668D01*
X164711199Y-68969187D01*
X164466839Y-69146725D01*
X164246647Y-69353499D01*
X164054114Y-69586232D01*
X163892267Y-69841262D01*
X163763656Y-70114576D01*
X163763654Y-70114580D01*
X163670322Y-70401826D01*
X163670318Y-70401842D01*
X163613722Y-70698529D01*
X163613719Y-70698552D01*
X163594754Y-70999999D01*
X124405246Y-70999999D01*
X124386280Y-70698543D01*
X124329681Y-70401840D01*
X124329678Y-70401833D01*
X124329677Y-70401826D01*
X124236345Y-70114580D01*
X124236343Y-70114576D01*
X124236342Y-70114575D01*
X124236341Y-70114570D01*
X124107733Y-69841264D01*
X124102822Y-69833526D01*
X123945885Y-69586232D01*
X123753352Y-69353499D01*
X123684772Y-69289098D01*
X123533162Y-69146726D01*
X123404215Y-69053041D01*
X123288800Y-68969187D01*
X123024104Y-68823668D01*
X123024097Y-68823665D01*
X122743269Y-68712477D01*
X122743265Y-68712475D01*
X122450696Y-68637357D01*
X122450701Y-68637357D01*
X122151034Y-68599500D01*
X122151027Y-68599500D01*
X121848973Y-68599500D01*
X121848965Y-68599500D01*
X121549301Y-68637357D01*
X121256734Y-68712475D01*
X121256730Y-68712477D01*
X120975902Y-68823665D01*
X120975895Y-68823668D01*
X120711199Y-68969187D01*
X120466839Y-69146725D01*
X120246647Y-69353499D01*
X120054114Y-69586232D01*
X119892267Y-69841262D01*
X119763656Y-70114576D01*
X119763654Y-70114580D01*
X119670322Y-70401826D01*
X119670318Y-70401842D01*
X119613722Y-70698529D01*
X119613719Y-70698552D01*
X119594754Y-70999999D01*
X119250558Y-70999999D01*
X119250616Y-70997934D01*
X119253298Y-70950172D01*
X119267555Y-70696289D01*
X119268485Y-70688049D01*
X119301998Y-70490812D01*
X119318739Y-70392276D01*
X119320585Y-70384190D01*
X119403647Y-70095875D01*
X119406377Y-70088072D01*
X119521198Y-69810870D01*
X119524791Y-69803408D01*
X119669926Y-69540806D01*
X119674327Y-69533801D01*
X119847958Y-69289090D01*
X119853121Y-69282618D01*
X120053045Y-69058903D01*
X120058903Y-69053045D01*
X120282618Y-68853121D01*
X120289090Y-68847958D01*
X120533801Y-68674327D01*
X120540806Y-68669926D01*
X120803408Y-68524791D01*
X120810870Y-68521198D01*
X121088072Y-68406377D01*
X121095875Y-68403647D01*
X121384193Y-68320584D01*
X121392276Y-68318739D01*
X121688057Y-68268484D01*
X121696289Y-68267555D01*
X121997934Y-68250615D01*
X122002083Y-68250500D01*
X122044170Y-68250500D01*
X165955830Y-68250500D01*
X165997917Y-68250500D01*
X166002065Y-68250615D01*
G37*
G04 #@! TD.AperFunction*
M02*
