G04 #@! TF.GenerationSoftware,KiCad,Pcbnew,8.0.1+dfsg-1*
G04 #@! TF.CreationDate,2024-10-13T21:14:54+00:00*
G04 #@! TF.ProjectId,usb2m2e,75736232-6d32-4652-9e6b-696361645f70,rev?*
G04 #@! TF.SameCoordinates,Original*
G04 #@! TF.FileFunction,Legend,Top*
G04 #@! TF.FilePolarity,Positive*
%FSLAX46Y46*%
G04 Gerber Fmt 4.6, Leading zero omitted, Abs format (unit mm)*
G04 Created by KiCad (PCBNEW 8.0.1+dfsg-1) date 2024-10-13 21:14:54*
%MOMM*%
%LPD*%
G01*
G04 APERTURE LIST*
%ADD10C,0.150000*%
%ADD11C,0.160000*%
%ADD12C,0.120000*%
%ADD13C,0.260000*%
%ADD14C,1.100000*%
%ADD15C,1.600000*%
%ADD16R,1.550000X0.300000*%
%ADD17R,2.750000X1.200000*%
%ADD18C,4.500000*%
%ADD19R,1.900000X1.100000*%
%ADD20C,0.650000*%
%ADD21R,1.450000X0.600000*%
%ADD22R,1.450000X0.300000*%
%ADD23O,2.100000X1.000000*%
%ADD24O,1.600000X1.000000*%
%ADD25C,5.000000*%
%ADD26R,1.400000X1.200000*%
G04 APERTURE END LIST*
D10*
X163600000Y-72000000D02*
X139550000Y-72000000D01*
X165000000Y-80050000D02*
X165000000Y-73400000D01*
X165000000Y-92600000D02*
X165000000Y-85950000D01*
X163600000Y-94000000D02*
X139550000Y-94000000D01*
D11*
X123148971Y-82892379D02*
X122563257Y-82892379D01*
X122563257Y-82892379D02*
X122446114Y-82853332D01*
X122446114Y-82853332D02*
X122368019Y-82775236D01*
X122368019Y-82775236D02*
X122328971Y-82658094D01*
X122328971Y-82658094D02*
X122328971Y-82579998D01*
X122328971Y-83673332D02*
X122328971Y-83282856D01*
X122328971Y-83282856D02*
X123148971Y-83282856D01*
X122407066Y-84415237D02*
X122368019Y-84376189D01*
X122368019Y-84376189D02*
X122328971Y-84259047D01*
X122328971Y-84259047D02*
X122328971Y-84180951D01*
X122328971Y-84180951D02*
X122368019Y-84063808D01*
X122368019Y-84063808D02*
X122446114Y-83985713D01*
X122446114Y-83985713D02*
X122524209Y-83946666D01*
X122524209Y-83946666D02*
X122680399Y-83907618D01*
X122680399Y-83907618D02*
X122797542Y-83907618D01*
X122797542Y-83907618D02*
X122953733Y-83946666D01*
X122953733Y-83946666D02*
X123031828Y-83985713D01*
X123031828Y-83985713D02*
X123109923Y-84063808D01*
X123109923Y-84063808D02*
X123148971Y-84180951D01*
X123148971Y-84180951D02*
X123148971Y-84259047D01*
X123148971Y-84259047D02*
X123109923Y-84376189D01*
X123109923Y-84376189D02*
X123070876Y-84415237D01*
X123148971Y-85000951D02*
X122563257Y-85000951D01*
X122563257Y-85000951D02*
X122446114Y-84961904D01*
X122446114Y-84961904D02*
X122368019Y-84883808D01*
X122368019Y-84883808D02*
X122328971Y-84766666D01*
X122328971Y-84766666D02*
X122328971Y-84688570D01*
X122328971Y-85781904D02*
X122328971Y-85391428D01*
X122328971Y-85391428D02*
X123148971Y-85391428D01*
X122407066Y-86523809D02*
X122368019Y-86484761D01*
X122368019Y-86484761D02*
X122328971Y-86367619D01*
X122328971Y-86367619D02*
X122328971Y-86289523D01*
X122328971Y-86289523D02*
X122368019Y-86172380D01*
X122368019Y-86172380D02*
X122446114Y-86094285D01*
X122446114Y-86094285D02*
X122524209Y-86055238D01*
X122524209Y-86055238D02*
X122680399Y-86016190D01*
X122680399Y-86016190D02*
X122797542Y-86016190D01*
X122797542Y-86016190D02*
X122953733Y-86055238D01*
X122953733Y-86055238D02*
X123031828Y-86094285D01*
X123031828Y-86094285D02*
X123109923Y-86172380D01*
X123109923Y-86172380D02*
X123148971Y-86289523D01*
X123148971Y-86289523D02*
X123148971Y-86367619D01*
X123148971Y-86367619D02*
X123109923Y-86484761D01*
X123109923Y-86484761D02*
X123070876Y-86523809D01*
X123148971Y-87109523D02*
X122563257Y-87109523D01*
X122563257Y-87109523D02*
X122446114Y-87070476D01*
X122446114Y-87070476D02*
X122368019Y-86992380D01*
X122368019Y-86992380D02*
X122328971Y-86875238D01*
X122328971Y-86875238D02*
X122328971Y-86797142D01*
X122328971Y-87890476D02*
X122328971Y-87500000D01*
X122328971Y-87500000D02*
X123148971Y-87500000D01*
X122407066Y-88632381D02*
X122368019Y-88593333D01*
X122368019Y-88593333D02*
X122328971Y-88476191D01*
X122328971Y-88476191D02*
X122328971Y-88398095D01*
X122328971Y-88398095D02*
X122368019Y-88280952D01*
X122368019Y-88280952D02*
X122446114Y-88202857D01*
X122446114Y-88202857D02*
X122524209Y-88163810D01*
X122524209Y-88163810D02*
X122680399Y-88124762D01*
X122680399Y-88124762D02*
X122797542Y-88124762D01*
X122797542Y-88124762D02*
X122953733Y-88163810D01*
X122953733Y-88163810D02*
X123031828Y-88202857D01*
X123031828Y-88202857D02*
X123109923Y-88280952D01*
X123109923Y-88280952D02*
X123148971Y-88398095D01*
X123148971Y-88398095D02*
X123148971Y-88476191D01*
X123148971Y-88476191D02*
X123109923Y-88593333D01*
X123109923Y-88593333D02*
X123070876Y-88632381D01*
X123148971Y-89218095D02*
X122563257Y-89218095D01*
X122563257Y-89218095D02*
X122446114Y-89179048D01*
X122446114Y-89179048D02*
X122368019Y-89100952D01*
X122368019Y-89100952D02*
X122328971Y-88983810D01*
X122328971Y-88983810D02*
X122328971Y-88905714D01*
X122328971Y-89999048D02*
X122328971Y-89608572D01*
X122328971Y-89608572D02*
X123148971Y-89608572D01*
X122407066Y-90740953D02*
X122368019Y-90701905D01*
X122368019Y-90701905D02*
X122328971Y-90584763D01*
X122328971Y-90584763D02*
X122328971Y-90506667D01*
X122328971Y-90506667D02*
X122368019Y-90389524D01*
X122368019Y-90389524D02*
X122446114Y-90311429D01*
X122446114Y-90311429D02*
X122524209Y-90272382D01*
X122524209Y-90272382D02*
X122680399Y-90233334D01*
X122680399Y-90233334D02*
X122797542Y-90233334D01*
X122797542Y-90233334D02*
X122953733Y-90272382D01*
X122953733Y-90272382D02*
X123031828Y-90311429D01*
X123031828Y-90311429D02*
X123109923Y-90389524D01*
X123109923Y-90389524D02*
X123148971Y-90506667D01*
X123148971Y-90506667D02*
X123148971Y-90584763D01*
X123148971Y-90584763D02*
X123109923Y-90701905D01*
X123109923Y-90701905D02*
X123070876Y-90740953D01*
D10*
X146765350Y-95093208D02*
X146765350Y-95759875D01*
X146336779Y-95093208D02*
X146336779Y-95617017D01*
X146336779Y-95617017D02*
X146384398Y-95712256D01*
X146384398Y-95712256D02*
X146479636Y-95759875D01*
X146479636Y-95759875D02*
X146622493Y-95759875D01*
X146622493Y-95759875D02*
X146717731Y-95712256D01*
X146717731Y-95712256D02*
X146765350Y-95664636D01*
X147193922Y-95712256D02*
X147289160Y-95759875D01*
X147289160Y-95759875D02*
X147479636Y-95759875D01*
X147479636Y-95759875D02*
X147574874Y-95712256D01*
X147574874Y-95712256D02*
X147622493Y-95617017D01*
X147622493Y-95617017D02*
X147622493Y-95569398D01*
X147622493Y-95569398D02*
X147574874Y-95474160D01*
X147574874Y-95474160D02*
X147479636Y-95426541D01*
X147479636Y-95426541D02*
X147336779Y-95426541D01*
X147336779Y-95426541D02*
X147241541Y-95378922D01*
X147241541Y-95378922D02*
X147193922Y-95283684D01*
X147193922Y-95283684D02*
X147193922Y-95236065D01*
X147193922Y-95236065D02*
X147241541Y-95140827D01*
X147241541Y-95140827D02*
X147336779Y-95093208D01*
X147336779Y-95093208D02*
X147479636Y-95093208D01*
X147479636Y-95093208D02*
X147574874Y-95140827D01*
X148051065Y-95759875D02*
X148051065Y-94759875D01*
X148051065Y-95140827D02*
X148146303Y-95093208D01*
X148146303Y-95093208D02*
X148336779Y-95093208D01*
X148336779Y-95093208D02*
X148432017Y-95140827D01*
X148432017Y-95140827D02*
X148479636Y-95188446D01*
X148479636Y-95188446D02*
X148527255Y-95283684D01*
X148527255Y-95283684D02*
X148527255Y-95569398D01*
X148527255Y-95569398D02*
X148479636Y-95664636D01*
X148479636Y-95664636D02*
X148432017Y-95712256D01*
X148432017Y-95712256D02*
X148336779Y-95759875D01*
X148336779Y-95759875D02*
X148146303Y-95759875D01*
X148146303Y-95759875D02*
X148051065Y-95712256D01*
X148955827Y-95378922D02*
X149717732Y-95378922D01*
X150051065Y-95093208D02*
X150432017Y-95093208D01*
X150193922Y-94759875D02*
X150193922Y-95617017D01*
X150193922Y-95617017D02*
X150241541Y-95712256D01*
X150241541Y-95712256D02*
X150336779Y-95759875D01*
X150336779Y-95759875D02*
X150432017Y-95759875D01*
X150908208Y-95759875D02*
X150812970Y-95712256D01*
X150812970Y-95712256D02*
X150765351Y-95664636D01*
X150765351Y-95664636D02*
X150717732Y-95569398D01*
X150717732Y-95569398D02*
X150717732Y-95283684D01*
X150717732Y-95283684D02*
X150765351Y-95188446D01*
X150765351Y-95188446D02*
X150812970Y-95140827D01*
X150812970Y-95140827D02*
X150908208Y-95093208D01*
X150908208Y-95093208D02*
X151051065Y-95093208D01*
X151051065Y-95093208D02*
X151146303Y-95140827D01*
X151146303Y-95140827D02*
X151193922Y-95188446D01*
X151193922Y-95188446D02*
X151241541Y-95283684D01*
X151241541Y-95283684D02*
X151241541Y-95569398D01*
X151241541Y-95569398D02*
X151193922Y-95664636D01*
X151193922Y-95664636D02*
X151146303Y-95712256D01*
X151146303Y-95712256D02*
X151051065Y-95759875D01*
X151051065Y-95759875D02*
X150908208Y-95759875D01*
X151670113Y-95378922D02*
X152432018Y-95378922D01*
X152908208Y-95759875D02*
X152908208Y-94759875D01*
X152908208Y-94759875D02*
X153241541Y-95474160D01*
X153241541Y-95474160D02*
X153574874Y-94759875D01*
X153574874Y-94759875D02*
X153574874Y-95759875D01*
X154051065Y-95664636D02*
X154098684Y-95712256D01*
X154098684Y-95712256D02*
X154051065Y-95759875D01*
X154051065Y-95759875D02*
X154003446Y-95712256D01*
X154003446Y-95712256D02*
X154051065Y-95664636D01*
X154051065Y-95664636D02*
X154051065Y-95759875D01*
X154479636Y-94855113D02*
X154527255Y-94807494D01*
X154527255Y-94807494D02*
X154622493Y-94759875D01*
X154622493Y-94759875D02*
X154860588Y-94759875D01*
X154860588Y-94759875D02*
X154955826Y-94807494D01*
X154955826Y-94807494D02*
X155003445Y-94855113D01*
X155003445Y-94855113D02*
X155051064Y-94950351D01*
X155051064Y-94950351D02*
X155051064Y-95045589D01*
X155051064Y-95045589D02*
X155003445Y-95188446D01*
X155003445Y-95188446D02*
X154432017Y-95759875D01*
X154432017Y-95759875D02*
X155051064Y-95759875D01*
X155479636Y-95378922D02*
X156241541Y-95378922D01*
X156717731Y-95236065D02*
X157051064Y-95236065D01*
X157193921Y-95759875D02*
X156717731Y-95759875D01*
X156717731Y-95759875D02*
X156717731Y-94759875D01*
X156717731Y-94759875D02*
X157193921Y-94759875D01*
X146241541Y-96703152D02*
X146479636Y-97369819D01*
X146479636Y-97369819D02*
X146717731Y-96703152D01*
X147622493Y-97369819D02*
X147051065Y-97369819D01*
X147336779Y-97369819D02*
X147336779Y-96369819D01*
X147336779Y-96369819D02*
X147241541Y-96512676D01*
X147241541Y-96512676D02*
X147146303Y-96607914D01*
X147146303Y-96607914D02*
X147051065Y-96655533D01*
X148765351Y-96465057D02*
X148812970Y-96417438D01*
X148812970Y-96417438D02*
X148908208Y-96369819D01*
X148908208Y-96369819D02*
X149146303Y-96369819D01*
X149146303Y-96369819D02*
X149241541Y-96417438D01*
X149241541Y-96417438D02*
X149289160Y-96465057D01*
X149289160Y-96465057D02*
X149336779Y-96560295D01*
X149336779Y-96560295D02*
X149336779Y-96655533D01*
X149336779Y-96655533D02*
X149289160Y-96798390D01*
X149289160Y-96798390D02*
X148717732Y-97369819D01*
X148717732Y-97369819D02*
X149336779Y-97369819D01*
X149955827Y-96369819D02*
X150051065Y-96369819D01*
X150051065Y-96369819D02*
X150146303Y-96417438D01*
X150146303Y-96417438D02*
X150193922Y-96465057D01*
X150193922Y-96465057D02*
X150241541Y-96560295D01*
X150241541Y-96560295D02*
X150289160Y-96750771D01*
X150289160Y-96750771D02*
X150289160Y-96988866D01*
X150289160Y-96988866D02*
X150241541Y-97179342D01*
X150241541Y-97179342D02*
X150193922Y-97274580D01*
X150193922Y-97274580D02*
X150146303Y-97322200D01*
X150146303Y-97322200D02*
X150051065Y-97369819D01*
X150051065Y-97369819D02*
X149955827Y-97369819D01*
X149955827Y-97369819D02*
X149860589Y-97322200D01*
X149860589Y-97322200D02*
X149812970Y-97274580D01*
X149812970Y-97274580D02*
X149765351Y-97179342D01*
X149765351Y-97179342D02*
X149717732Y-96988866D01*
X149717732Y-96988866D02*
X149717732Y-96750771D01*
X149717732Y-96750771D02*
X149765351Y-96560295D01*
X149765351Y-96560295D02*
X149812970Y-96465057D01*
X149812970Y-96465057D02*
X149860589Y-96417438D01*
X149860589Y-96417438D02*
X149955827Y-96369819D01*
X150670113Y-96465057D02*
X150717732Y-96417438D01*
X150717732Y-96417438D02*
X150812970Y-96369819D01*
X150812970Y-96369819D02*
X151051065Y-96369819D01*
X151051065Y-96369819D02*
X151146303Y-96417438D01*
X151146303Y-96417438D02*
X151193922Y-96465057D01*
X151193922Y-96465057D02*
X151241541Y-96560295D01*
X151241541Y-96560295D02*
X151241541Y-96655533D01*
X151241541Y-96655533D02*
X151193922Y-96798390D01*
X151193922Y-96798390D02*
X150622494Y-97369819D01*
X150622494Y-97369819D02*
X151241541Y-97369819D01*
X152098684Y-96703152D02*
X152098684Y-97369819D01*
X151860589Y-96322200D02*
X151622494Y-97036485D01*
X151622494Y-97036485D02*
X152241541Y-97036485D01*
X152622494Y-96988866D02*
X153384399Y-96988866D01*
X154051065Y-96369819D02*
X154146303Y-96369819D01*
X154146303Y-96369819D02*
X154241541Y-96417438D01*
X154241541Y-96417438D02*
X154289160Y-96465057D01*
X154289160Y-96465057D02*
X154336779Y-96560295D01*
X154336779Y-96560295D02*
X154384398Y-96750771D01*
X154384398Y-96750771D02*
X154384398Y-96988866D01*
X154384398Y-96988866D02*
X154336779Y-97179342D01*
X154336779Y-97179342D02*
X154289160Y-97274580D01*
X154289160Y-97274580D02*
X154241541Y-97322200D01*
X154241541Y-97322200D02*
X154146303Y-97369819D01*
X154146303Y-97369819D02*
X154051065Y-97369819D01*
X154051065Y-97369819D02*
X153955827Y-97322200D01*
X153955827Y-97322200D02*
X153908208Y-97274580D01*
X153908208Y-97274580D02*
X153860589Y-97179342D01*
X153860589Y-97179342D02*
X153812970Y-96988866D01*
X153812970Y-96988866D02*
X153812970Y-96750771D01*
X153812970Y-96750771D02*
X153860589Y-96560295D01*
X153860589Y-96560295D02*
X153908208Y-96465057D01*
X153908208Y-96465057D02*
X153955827Y-96417438D01*
X153955827Y-96417438D02*
X154051065Y-96369819D01*
X154860589Y-97369819D02*
X155051065Y-97369819D01*
X155051065Y-97369819D02*
X155146303Y-97322200D01*
X155146303Y-97322200D02*
X155193922Y-97274580D01*
X155193922Y-97274580D02*
X155289160Y-97131723D01*
X155289160Y-97131723D02*
X155336779Y-96941247D01*
X155336779Y-96941247D02*
X155336779Y-96560295D01*
X155336779Y-96560295D02*
X155289160Y-96465057D01*
X155289160Y-96465057D02*
X155241541Y-96417438D01*
X155241541Y-96417438D02*
X155146303Y-96369819D01*
X155146303Y-96369819D02*
X154955827Y-96369819D01*
X154955827Y-96369819D02*
X154860589Y-96417438D01*
X154860589Y-96417438D02*
X154812970Y-96465057D01*
X154812970Y-96465057D02*
X154765351Y-96560295D01*
X154765351Y-96560295D02*
X154765351Y-96798390D01*
X154765351Y-96798390D02*
X154812970Y-96893628D01*
X154812970Y-96893628D02*
X154860589Y-96941247D01*
X154860589Y-96941247D02*
X154955827Y-96988866D01*
X154955827Y-96988866D02*
X155146303Y-96988866D01*
X155146303Y-96988866D02*
X155241541Y-96941247D01*
X155241541Y-96941247D02*
X155289160Y-96893628D01*
X155289160Y-96893628D02*
X155336779Y-96798390D01*
X155765351Y-96988866D02*
X156527256Y-96988866D01*
X156955827Y-96465057D02*
X157003446Y-96417438D01*
X157003446Y-96417438D02*
X157098684Y-96369819D01*
X157098684Y-96369819D02*
X157336779Y-96369819D01*
X157336779Y-96369819D02*
X157432017Y-96417438D01*
X157432017Y-96417438D02*
X157479636Y-96465057D01*
X157479636Y-96465057D02*
X157527255Y-96560295D01*
X157527255Y-96560295D02*
X157527255Y-96655533D01*
X157527255Y-96655533D02*
X157479636Y-96798390D01*
X157479636Y-96798390D02*
X156908208Y-97369819D01*
X156908208Y-97369819D02*
X157527255Y-97369819D01*
X158098684Y-96798390D02*
X158003446Y-96750771D01*
X158003446Y-96750771D02*
X157955827Y-96703152D01*
X157955827Y-96703152D02*
X157908208Y-96607914D01*
X157908208Y-96607914D02*
X157908208Y-96560295D01*
X157908208Y-96560295D02*
X157955827Y-96465057D01*
X157955827Y-96465057D02*
X158003446Y-96417438D01*
X158003446Y-96417438D02*
X158098684Y-96369819D01*
X158098684Y-96369819D02*
X158289160Y-96369819D01*
X158289160Y-96369819D02*
X158384398Y-96417438D01*
X158384398Y-96417438D02*
X158432017Y-96465057D01*
X158432017Y-96465057D02*
X158479636Y-96560295D01*
X158479636Y-96560295D02*
X158479636Y-96607914D01*
X158479636Y-96607914D02*
X158432017Y-96703152D01*
X158432017Y-96703152D02*
X158384398Y-96750771D01*
X158384398Y-96750771D02*
X158289160Y-96798390D01*
X158289160Y-96798390D02*
X158098684Y-96798390D01*
X158098684Y-96798390D02*
X158003446Y-96846009D01*
X158003446Y-96846009D02*
X157955827Y-96893628D01*
X157955827Y-96893628D02*
X157908208Y-96988866D01*
X157908208Y-96988866D02*
X157908208Y-97179342D01*
X157908208Y-97179342D02*
X157955827Y-97274580D01*
X157955827Y-97274580D02*
X158003446Y-97322200D01*
X158003446Y-97322200D02*
X158098684Y-97369819D01*
X158098684Y-97369819D02*
X158289160Y-97369819D01*
X158289160Y-97369819D02*
X158384398Y-97322200D01*
X158384398Y-97322200D02*
X158432017Y-97274580D01*
X158432017Y-97274580D02*
X158479636Y-97179342D01*
X158479636Y-97179342D02*
X158479636Y-96988866D01*
X158479636Y-96988866D02*
X158432017Y-96893628D01*
X158432017Y-96893628D02*
X158384398Y-96846009D01*
X158384398Y-96846009D02*
X158289160Y-96798390D01*
D12*
X135000000Y-71990000D02*
X138640000Y-71990000D01*
X135000000Y-94010000D02*
X138640000Y-94010000D01*
X138640000Y-71990000D02*
X138640000Y-73490000D01*
X138640000Y-94010000D02*
X138640000Y-92510000D01*
D13*
X130130000Y-92250000D02*
G75*
G02*
X129870000Y-92250000I-130000J0D01*
G01*
X129870000Y-92250000D02*
G75*
G02*
X130130000Y-92250000I130000J0D01*
G01*
D12*
X121190000Y-77392164D02*
X121190000Y-77607836D01*
X121910000Y-77392164D02*
X121910000Y-77607836D01*
X125753641Y-95840000D02*
X125446359Y-95840000D01*
X125753641Y-96600000D02*
X125446359Y-96600000D01*
X124638641Y-75657500D02*
X124331359Y-75657500D01*
X124638641Y-76417500D02*
X124331359Y-76417500D01*
X121170000Y-79553641D02*
X121170000Y-79246359D01*
X121930000Y-79553641D02*
X121930000Y-79246359D01*
X129220000Y-94863641D02*
X129220000Y-94556359D01*
X129980000Y-94863641D02*
X129980000Y-94556359D01*
X129020000Y-73446359D02*
X129020000Y-73753641D01*
X129780000Y-73446359D02*
X129780000Y-73753641D01*
X127607836Y-95850000D02*
X127392164Y-95850000D01*
X127607836Y-96570000D02*
X127392164Y-96570000D01*
X126811252Y-73390000D02*
X125388748Y-73390000D01*
X126811252Y-75210000D02*
X125388748Y-75210000D01*
X126820000Y-82753641D02*
X126820000Y-82446359D01*
X127580000Y-82753641D02*
X127580000Y-82446359D01*
X126920000Y-89756359D02*
X126920000Y-90063641D01*
X127680000Y-89756359D02*
X127680000Y-90063641D01*
X122738641Y-75657500D02*
X122431359Y-75657500D01*
X122738641Y-76417500D02*
X122431359Y-76417500D01*
X122215000Y-79527500D02*
X122215000Y-76837500D01*
X125435000Y-79637500D02*
X125435000Y-76837500D01*
X122445000Y-80047500D02*
X122165000Y-79767500D01*
X122445000Y-79767500D01*
X122445000Y-80047500D01*
G36*
X122445000Y-80047500D02*
G01*
X122165000Y-79767500D01*
X122445000Y-79767500D01*
X122445000Y-80047500D01*
G37*
X125890000Y-79336252D02*
X125890000Y-77913748D01*
X127710000Y-79336252D02*
X127710000Y-77913748D01*
X123892164Y-80140000D02*
X124107836Y-80140000D01*
X123892164Y-80860000D02*
X124107836Y-80860000D01*
X117540000Y-81980000D02*
X117540000Y-91380000D01*
X119440000Y-81980000D02*
X117540000Y-81980000D01*
X119440000Y-91380000D02*
X117540000Y-91380000D01*
X123340000Y-81980000D02*
X121340000Y-81980000D01*
X123340000Y-91380000D02*
X121340000Y-91380000D01*
X128040000Y-83199622D02*
X128040000Y-82400378D01*
X129160000Y-83199622D02*
X129160000Y-82400378D01*
X141688748Y-95090000D02*
X143111252Y-95090000D01*
X141688748Y-96910000D02*
X143111252Y-96910000D01*
X119640000Y-79100378D02*
X119640000Y-79899622D01*
X120760000Y-79100378D02*
X120760000Y-79899622D01*
X126890000Y-86700000D02*
X126890000Y-85900000D01*
X126890000Y-86700000D02*
X126890000Y-87500000D01*
X130010000Y-86700000D02*
X130010000Y-85900000D01*
X130010000Y-86700000D02*
X130010000Y-87500000D01*
X126940000Y-88000000D02*
X126610000Y-88240000D01*
X126610000Y-87760000D01*
X126940000Y-88000000D01*
G36*
X126940000Y-88000000D02*
G01*
X126610000Y-88240000D01*
X126610000Y-87760000D01*
X126940000Y-88000000D01*
G37*
X128900000Y-92310000D02*
X124900000Y-92310000D01*
X128900000Y-95610000D02*
X128900000Y-92310000D01*
%LPC*%
D14*
X136750000Y-93000000D03*
D15*
X136750000Y-73000000D03*
D16*
X131525000Y-92250000D03*
X138975000Y-92000000D03*
X131525000Y-91750000D03*
X138975000Y-91500000D03*
X131525000Y-91250000D03*
X138975000Y-91000000D03*
X131525000Y-90750000D03*
X138975000Y-90500000D03*
X131525000Y-90250000D03*
X138975000Y-90000000D03*
X131525000Y-89750000D03*
X138975000Y-89500000D03*
X131525000Y-89250000D03*
X138975000Y-89000000D03*
X131525000Y-88750000D03*
X138975000Y-88500000D03*
X131525000Y-88250000D03*
X138975000Y-88000000D03*
X131525000Y-87750000D03*
X138975000Y-87500000D03*
X131525000Y-87250000D03*
X138975000Y-87000000D03*
X131525000Y-86750000D03*
X138975000Y-86500000D03*
X131525000Y-86250000D03*
X138975000Y-86000000D03*
X131525000Y-85750000D03*
X138975000Y-85500000D03*
X131525000Y-85250000D03*
X138975000Y-85000000D03*
X131525000Y-84750000D03*
X138975000Y-84500000D03*
X131525000Y-84250000D03*
X138975000Y-84000000D03*
X131525000Y-83750000D03*
X138975000Y-83500000D03*
X131525000Y-83250000D03*
X138975000Y-83000000D03*
X131525000Y-82750000D03*
X138975000Y-82500000D03*
X131525000Y-82250000D03*
X138975000Y-82000000D03*
X131525000Y-81750000D03*
X138975000Y-81500000D03*
X131525000Y-81250000D03*
X138975000Y-81000000D03*
X131525000Y-80750000D03*
X138975000Y-80500000D03*
X131525000Y-80250000D03*
X138975000Y-80000000D03*
X131525000Y-79750000D03*
X138975000Y-79500000D03*
X131525000Y-79250000D03*
X138975000Y-79000000D03*
X131525000Y-78750000D03*
X138975000Y-78500000D03*
X131525000Y-78250000D03*
X138975000Y-78000000D03*
X131525000Y-77750000D03*
X138975000Y-77500000D03*
X131525000Y-77250000D03*
X138975000Y-77000000D03*
X131525000Y-76750000D03*
X138975000Y-76500000D03*
X131525000Y-76250000D03*
X138975000Y-76000000D03*
X131525000Y-75750000D03*
X138975000Y-75500000D03*
X131525000Y-75250000D03*
X138975000Y-75000000D03*
X131525000Y-74750000D03*
X138975000Y-74500000D03*
X131525000Y-74250000D03*
X138975000Y-74000000D03*
X131525000Y-73750000D03*
D17*
X132250000Y-93350000D03*
X132250000Y-72650000D03*
G36*
G01*
X121380000Y-76740000D02*
X121720000Y-76740000D01*
G75*
G02*
X121860000Y-76880000I0J-140000D01*
G01*
X121860000Y-77160000D01*
G75*
G02*
X121720000Y-77300000I-140000J0D01*
G01*
X121380000Y-77300000D01*
G75*
G02*
X121240000Y-77160000I0J140000D01*
G01*
X121240000Y-76880000D01*
G75*
G02*
X121380000Y-76740000I140000J0D01*
G01*
G37*
G36*
G01*
X121380000Y-77700000D02*
X121720000Y-77700000D01*
G75*
G02*
X121860000Y-77840000I0J-140000D01*
G01*
X121860000Y-78120000D01*
G75*
G02*
X121720000Y-78260000I-140000J0D01*
G01*
X121380000Y-78260000D01*
G75*
G02*
X121240000Y-78120000I0J140000D01*
G01*
X121240000Y-77840000D01*
G75*
G02*
X121380000Y-77700000I140000J0D01*
G01*
G37*
G36*
G01*
X126380000Y-96035000D02*
X126380000Y-96405000D01*
G75*
G02*
X126245000Y-96540000I-135000J0D01*
G01*
X125975000Y-96540000D01*
G75*
G02*
X125840000Y-96405000I0J135000D01*
G01*
X125840000Y-96035000D01*
G75*
G02*
X125975000Y-95900000I135000J0D01*
G01*
X126245000Y-95900000D01*
G75*
G02*
X126380000Y-96035000I0J-135000D01*
G01*
G37*
G36*
G01*
X125360000Y-96035000D02*
X125360000Y-96405000D01*
G75*
G02*
X125225000Y-96540000I-135000J0D01*
G01*
X124955000Y-96540000D01*
G75*
G02*
X124820000Y-96405000I0J135000D01*
G01*
X124820000Y-96035000D01*
G75*
G02*
X124955000Y-95900000I135000J0D01*
G01*
X125225000Y-95900000D01*
G75*
G02*
X125360000Y-96035000I0J-135000D01*
G01*
G37*
G36*
G01*
X125265000Y-75852500D02*
X125265000Y-76222500D01*
G75*
G02*
X125130000Y-76357500I-135000J0D01*
G01*
X124860000Y-76357500D01*
G75*
G02*
X124725000Y-76222500I0J135000D01*
G01*
X124725000Y-75852500D01*
G75*
G02*
X124860000Y-75717500I135000J0D01*
G01*
X125130000Y-75717500D01*
G75*
G02*
X125265000Y-75852500I0J-135000D01*
G01*
G37*
G36*
G01*
X124245000Y-75852500D02*
X124245000Y-76222500D01*
G75*
G02*
X124110000Y-76357500I-135000J0D01*
G01*
X123840000Y-76357500D01*
G75*
G02*
X123705000Y-76222500I0J135000D01*
G01*
X123705000Y-75852500D01*
G75*
G02*
X123840000Y-75717500I135000J0D01*
G01*
X124110000Y-75717500D01*
G75*
G02*
X124245000Y-75852500I0J-135000D01*
G01*
G37*
G36*
G01*
X121735000Y-80180000D02*
X121365000Y-80180000D01*
G75*
G02*
X121230000Y-80045000I0J135000D01*
G01*
X121230000Y-79775000D01*
G75*
G02*
X121365000Y-79640000I135000J0D01*
G01*
X121735000Y-79640000D01*
G75*
G02*
X121870000Y-79775000I0J-135000D01*
G01*
X121870000Y-80045000D01*
G75*
G02*
X121735000Y-80180000I-135000J0D01*
G01*
G37*
G36*
G01*
X121735000Y-79160000D02*
X121365000Y-79160000D01*
G75*
G02*
X121230000Y-79025000I0J135000D01*
G01*
X121230000Y-78755000D01*
G75*
G02*
X121365000Y-78620000I135000J0D01*
G01*
X121735000Y-78620000D01*
G75*
G02*
X121870000Y-78755000I0J-135000D01*
G01*
X121870000Y-79025000D01*
G75*
G02*
X121735000Y-79160000I-135000J0D01*
G01*
G37*
G36*
G01*
X129785000Y-95490000D02*
X129415000Y-95490000D01*
G75*
G02*
X129280000Y-95355000I0J135000D01*
G01*
X129280000Y-95085000D01*
G75*
G02*
X129415000Y-94950000I135000J0D01*
G01*
X129785000Y-94950000D01*
G75*
G02*
X129920000Y-95085000I0J-135000D01*
G01*
X129920000Y-95355000D01*
G75*
G02*
X129785000Y-95490000I-135000J0D01*
G01*
G37*
G36*
G01*
X129785000Y-94470000D02*
X129415000Y-94470000D01*
G75*
G02*
X129280000Y-94335000I0J135000D01*
G01*
X129280000Y-94065000D01*
G75*
G02*
X129415000Y-93930000I135000J0D01*
G01*
X129785000Y-93930000D01*
G75*
G02*
X129920000Y-94065000I0J-135000D01*
G01*
X129920000Y-94335000D01*
G75*
G02*
X129785000Y-94470000I-135000J0D01*
G01*
G37*
G36*
G01*
X129215000Y-72820000D02*
X129585000Y-72820000D01*
G75*
G02*
X129720000Y-72955000I0J-135000D01*
G01*
X129720000Y-73225000D01*
G75*
G02*
X129585000Y-73360000I-135000J0D01*
G01*
X129215000Y-73360000D01*
G75*
G02*
X129080000Y-73225000I0J135000D01*
G01*
X129080000Y-72955000D01*
G75*
G02*
X129215000Y-72820000I135000J0D01*
G01*
G37*
G36*
G01*
X129215000Y-73840000D02*
X129585000Y-73840000D01*
G75*
G02*
X129720000Y-73975000I0J-135000D01*
G01*
X129720000Y-74245000D01*
G75*
G02*
X129585000Y-74380000I-135000J0D01*
G01*
X129215000Y-74380000D01*
G75*
G02*
X129080000Y-74245000I0J135000D01*
G01*
X129080000Y-73975000D01*
G75*
G02*
X129215000Y-73840000I135000J0D01*
G01*
G37*
D18*
X122000000Y-71000000D03*
G36*
G01*
X128260000Y-96040000D02*
X128260000Y-96380000D01*
G75*
G02*
X128120000Y-96520000I-140000J0D01*
G01*
X127840000Y-96520000D01*
G75*
G02*
X127700000Y-96380000I0J140000D01*
G01*
X127700000Y-96040000D01*
G75*
G02*
X127840000Y-95900000I140000J0D01*
G01*
X128120000Y-95900000D01*
G75*
G02*
X128260000Y-96040000I0J-140000D01*
G01*
G37*
G36*
G01*
X127300000Y-96040000D02*
X127300000Y-96380000D01*
G75*
G02*
X127160000Y-96520000I-140000J0D01*
G01*
X126880000Y-96520000D01*
G75*
G02*
X126740000Y-96380000I0J140000D01*
G01*
X126740000Y-96040000D01*
G75*
G02*
X126880000Y-95900000I140000J0D01*
G01*
X127160000Y-95900000D01*
G75*
G02*
X127300000Y-96040000I0J-140000D01*
G01*
G37*
G36*
G01*
X128150000Y-73650000D02*
X128150000Y-74950000D01*
G75*
G02*
X127900000Y-75200000I-250000J0D01*
G01*
X127250000Y-75200000D01*
G75*
G02*
X127000000Y-74950000I0J250000D01*
G01*
X127000000Y-73650000D01*
G75*
G02*
X127250000Y-73400000I250000J0D01*
G01*
X127900000Y-73400000D01*
G75*
G02*
X128150000Y-73650000I0J-250000D01*
G01*
G37*
G36*
G01*
X125200000Y-73650000D02*
X125200000Y-74950000D01*
G75*
G02*
X124950000Y-75200000I-250000J0D01*
G01*
X124300000Y-75200000D01*
G75*
G02*
X124050000Y-74950000I0J250000D01*
G01*
X124050000Y-73650000D01*
G75*
G02*
X124300000Y-73400000I250000J0D01*
G01*
X124950000Y-73400000D01*
G75*
G02*
X125200000Y-73650000I0J-250000D01*
G01*
G37*
G36*
G01*
X127385000Y-83380000D02*
X127015000Y-83380000D01*
G75*
G02*
X126880000Y-83245000I0J135000D01*
G01*
X126880000Y-82975000D01*
G75*
G02*
X127015000Y-82840000I135000J0D01*
G01*
X127385000Y-82840000D01*
G75*
G02*
X127520000Y-82975000I0J-135000D01*
G01*
X127520000Y-83245000D01*
G75*
G02*
X127385000Y-83380000I-135000J0D01*
G01*
G37*
G36*
G01*
X127385000Y-82360000D02*
X127015000Y-82360000D01*
G75*
G02*
X126880000Y-82225000I0J135000D01*
G01*
X126880000Y-81955000D01*
G75*
G02*
X127015000Y-81820000I135000J0D01*
G01*
X127385000Y-81820000D01*
G75*
G02*
X127520000Y-81955000I0J-135000D01*
G01*
X127520000Y-82225000D01*
G75*
G02*
X127385000Y-82360000I-135000J0D01*
G01*
G37*
X166000000Y-95000000D03*
G36*
G01*
X127115000Y-89130000D02*
X127485000Y-89130000D01*
G75*
G02*
X127620000Y-89265000I0J-135000D01*
G01*
X127620000Y-89535000D01*
G75*
G02*
X127485000Y-89670000I-135000J0D01*
G01*
X127115000Y-89670000D01*
G75*
G02*
X126980000Y-89535000I0J135000D01*
G01*
X126980000Y-89265000D01*
G75*
G02*
X127115000Y-89130000I135000J0D01*
G01*
G37*
G36*
G01*
X127115000Y-90150000D02*
X127485000Y-90150000D01*
G75*
G02*
X127620000Y-90285000I0J-135000D01*
G01*
X127620000Y-90555000D01*
G75*
G02*
X127485000Y-90690000I-135000J0D01*
G01*
X127115000Y-90690000D01*
G75*
G02*
X126980000Y-90555000I0J135000D01*
G01*
X126980000Y-90285000D01*
G75*
G02*
X127115000Y-90150000I135000J0D01*
G01*
G37*
G36*
G01*
X123365000Y-75852500D02*
X123365000Y-76222500D01*
G75*
G02*
X123230000Y-76357500I-135000J0D01*
G01*
X122960000Y-76357500D01*
G75*
G02*
X122825000Y-76222500I0J135000D01*
G01*
X122825000Y-75852500D01*
G75*
G02*
X122960000Y-75717500I135000J0D01*
G01*
X123230000Y-75717500D01*
G75*
G02*
X123365000Y-75852500I0J-135000D01*
G01*
G37*
G36*
G01*
X122345000Y-75852500D02*
X122345000Y-76222500D01*
G75*
G02*
X122210000Y-76357500I-135000J0D01*
G01*
X121940000Y-76357500D01*
G75*
G02*
X121805000Y-76222500I0J135000D01*
G01*
X121805000Y-75852500D01*
G75*
G02*
X121940000Y-75717500I135000J0D01*
G01*
X122210000Y-75717500D01*
G75*
G02*
X122345000Y-75852500I0J-135000D01*
G01*
G37*
G36*
G01*
X122975000Y-79612500D02*
X122725000Y-79612500D01*
G75*
G02*
X122600000Y-79487500I0J125000D01*
G01*
X122600000Y-79112500D01*
G75*
G02*
X122725000Y-78987500I125000J0D01*
G01*
X122975000Y-78987500D01*
G75*
G02*
X123100000Y-79112500I0J-125000D01*
G01*
X123100000Y-79487500D01*
G75*
G02*
X122975000Y-79612500I-125000J0D01*
G01*
G37*
G36*
G01*
X123625000Y-79612500D02*
X123375000Y-79612500D01*
G75*
G02*
X123250000Y-79487500I0J125000D01*
G01*
X123250000Y-79112500D01*
G75*
G02*
X123375000Y-78987500I125000J0D01*
G01*
X123625000Y-78987500D01*
G75*
G02*
X123750000Y-79112500I0J-125000D01*
G01*
X123750000Y-79487500D01*
G75*
G02*
X123625000Y-79612500I-125000J0D01*
G01*
G37*
G36*
G01*
X124275000Y-79612500D02*
X124025000Y-79612500D01*
G75*
G02*
X123900000Y-79487500I0J125000D01*
G01*
X123900000Y-79112500D01*
G75*
G02*
X124025000Y-78987500I125000J0D01*
G01*
X124275000Y-78987500D01*
G75*
G02*
X124400000Y-79112500I0J-125000D01*
G01*
X124400000Y-79487500D01*
G75*
G02*
X124275000Y-79612500I-125000J0D01*
G01*
G37*
G36*
G01*
X124925000Y-79612500D02*
X124675000Y-79612500D01*
G75*
G02*
X124550000Y-79487500I0J125000D01*
G01*
X124550000Y-79112500D01*
G75*
G02*
X124675000Y-78987500I125000J0D01*
G01*
X124925000Y-78987500D01*
G75*
G02*
X125050000Y-79112500I0J-125000D01*
G01*
X125050000Y-79487500D01*
G75*
G02*
X124925000Y-79612500I-125000J0D01*
G01*
G37*
G36*
G01*
X124925000Y-77487500D02*
X124675000Y-77487500D01*
G75*
G02*
X124550000Y-77362500I0J125000D01*
G01*
X124550000Y-76987500D01*
G75*
G02*
X124675000Y-76862500I125000J0D01*
G01*
X124925000Y-76862500D01*
G75*
G02*
X125050000Y-76987500I0J-125000D01*
G01*
X125050000Y-77362500D01*
G75*
G02*
X124925000Y-77487500I-125000J0D01*
G01*
G37*
G36*
G01*
X124275000Y-77487500D02*
X124025000Y-77487500D01*
G75*
G02*
X123900000Y-77362500I0J125000D01*
G01*
X123900000Y-76987500D01*
G75*
G02*
X124025000Y-76862500I125000J0D01*
G01*
X124275000Y-76862500D01*
G75*
G02*
X124400000Y-76987500I0J-125000D01*
G01*
X124400000Y-77362500D01*
G75*
G02*
X124275000Y-77487500I-125000J0D01*
G01*
G37*
G36*
G01*
X123625000Y-77487500D02*
X123375000Y-77487500D01*
G75*
G02*
X123250000Y-77362500I0J125000D01*
G01*
X123250000Y-76987500D01*
G75*
G02*
X123375000Y-76862500I125000J0D01*
G01*
X123625000Y-76862500D01*
G75*
G02*
X123750000Y-76987500I0J-125000D01*
G01*
X123750000Y-77362500D01*
G75*
G02*
X123625000Y-77487500I-125000J0D01*
G01*
G37*
G36*
G01*
X122975000Y-77487500D02*
X122725000Y-77487500D01*
G75*
G02*
X122600000Y-77362500I0J125000D01*
G01*
X122600000Y-76987500D01*
G75*
G02*
X122725000Y-76862500I125000J0D01*
G01*
X122975000Y-76862500D01*
G75*
G02*
X123100000Y-76987500I0J-125000D01*
G01*
X123100000Y-77362500D01*
G75*
G02*
X122975000Y-77487500I-125000J0D01*
G01*
G37*
D19*
X123825000Y-78237500D03*
D18*
X166000000Y-71000000D03*
G36*
G01*
X127450000Y-80675000D02*
X126150000Y-80675000D01*
G75*
G02*
X125900000Y-80425000I0J250000D01*
G01*
X125900000Y-79775000D01*
G75*
G02*
X126150000Y-79525000I250000J0D01*
G01*
X127450000Y-79525000D01*
G75*
G02*
X127700000Y-79775000I0J-250000D01*
G01*
X127700000Y-80425000D01*
G75*
G02*
X127450000Y-80675000I-250000J0D01*
G01*
G37*
G36*
G01*
X127450000Y-77725000D02*
X126150000Y-77725000D01*
G75*
G02*
X125900000Y-77475000I0J250000D01*
G01*
X125900000Y-76825000D01*
G75*
G02*
X126150000Y-76575000I250000J0D01*
G01*
X127450000Y-76575000D01*
G75*
G02*
X127700000Y-76825000I0J-250000D01*
G01*
X127700000Y-77475000D01*
G75*
G02*
X127450000Y-77725000I-250000J0D01*
G01*
G37*
G36*
G01*
X123240000Y-80670000D02*
X123240000Y-80330000D01*
G75*
G02*
X123380000Y-80190000I140000J0D01*
G01*
X123660000Y-80190000D01*
G75*
G02*
X123800000Y-80330000I0J-140000D01*
G01*
X123800000Y-80670000D01*
G75*
G02*
X123660000Y-80810000I-140000J0D01*
G01*
X123380000Y-80810000D01*
G75*
G02*
X123240000Y-80670000I0J140000D01*
G01*
G37*
G36*
G01*
X124200000Y-80670000D02*
X124200000Y-80330000D01*
G75*
G02*
X124340000Y-80190000I140000J0D01*
G01*
X124620000Y-80190000D01*
G75*
G02*
X124760000Y-80330000I0J-140000D01*
G01*
X124760000Y-80670000D01*
G75*
G02*
X124620000Y-80810000I-140000J0D01*
G01*
X124340000Y-80810000D01*
G75*
G02*
X124200000Y-80670000I0J140000D01*
G01*
G37*
D20*
X124040000Y-83790000D03*
X124040000Y-89570000D03*
D21*
X125485000Y-83430000D03*
X125485000Y-84230000D03*
D22*
X125485000Y-85430000D03*
X125485000Y-86430000D03*
X125485000Y-86930000D03*
X125485000Y-87930000D03*
D21*
X125485000Y-89130000D03*
X125485000Y-89930000D03*
X125485000Y-89930000D03*
X125485000Y-89130000D03*
D22*
X125485000Y-88430000D03*
X125485000Y-87430000D03*
X125485000Y-85930000D03*
X125485000Y-84930000D03*
D21*
X125485000Y-84230000D03*
X125485000Y-83430000D03*
D23*
X124570000Y-82360000D03*
D24*
X120390000Y-82360000D03*
D23*
X124570000Y-91000000D03*
D24*
X120390000Y-91000000D03*
G36*
G01*
X128981250Y-84300000D02*
X128218750Y-84300000D01*
G75*
G02*
X128000000Y-84081250I0J218750D01*
G01*
X128000000Y-83643750D01*
G75*
G02*
X128218750Y-83425000I218750J0D01*
G01*
X128981250Y-83425000D01*
G75*
G02*
X129200000Y-83643750I0J-218750D01*
G01*
X129200000Y-84081250D01*
G75*
G02*
X128981250Y-84300000I-218750J0D01*
G01*
G37*
G36*
G01*
X128981250Y-82175000D02*
X128218750Y-82175000D01*
G75*
G02*
X128000000Y-81956250I0J218750D01*
G01*
X128000000Y-81518750D01*
G75*
G02*
X128218750Y-81300000I218750J0D01*
G01*
X128981250Y-81300000D01*
G75*
G02*
X129200000Y-81518750I0J-218750D01*
G01*
X129200000Y-81956250D01*
G75*
G02*
X128981250Y-82175000I-218750J0D01*
G01*
G37*
D18*
X122000000Y-95000000D03*
D25*
X165000000Y-83000000D03*
G36*
G01*
X140350000Y-96650000D02*
X140350000Y-95350000D01*
G75*
G02*
X140600000Y-95100000I250000J0D01*
G01*
X141250000Y-95100000D01*
G75*
G02*
X141500000Y-95350000I0J-250000D01*
G01*
X141500000Y-96650000D01*
G75*
G02*
X141250000Y-96900000I-250000J0D01*
G01*
X140600000Y-96900000D01*
G75*
G02*
X140350000Y-96650000I0J250000D01*
G01*
G37*
G36*
G01*
X143300000Y-96650000D02*
X143300000Y-95350000D01*
G75*
G02*
X143550000Y-95100000I250000J0D01*
G01*
X144200000Y-95100000D01*
G75*
G02*
X144450000Y-95350000I0J-250000D01*
G01*
X144450000Y-96650000D01*
G75*
G02*
X144200000Y-96900000I-250000J0D01*
G01*
X143550000Y-96900000D01*
G75*
G02*
X143300000Y-96650000I0J250000D01*
G01*
G37*
G36*
G01*
X119818750Y-78000000D02*
X120581250Y-78000000D01*
G75*
G02*
X120800000Y-78218750I0J-218750D01*
G01*
X120800000Y-78656250D01*
G75*
G02*
X120581250Y-78875000I-218750J0D01*
G01*
X119818750Y-78875000D01*
G75*
G02*
X119600000Y-78656250I0J218750D01*
G01*
X119600000Y-78218750D01*
G75*
G02*
X119818750Y-78000000I218750J0D01*
G01*
G37*
G36*
G01*
X119818750Y-80125000D02*
X120581250Y-80125000D01*
G75*
G02*
X120800000Y-80343750I0J-218750D01*
G01*
X120800000Y-80781250D01*
G75*
G02*
X120581250Y-81000000I-218750J0D01*
G01*
X119818750Y-81000000D01*
G75*
G02*
X119600000Y-80781250I0J218750D01*
G01*
X119600000Y-80343750D01*
G75*
G02*
X119818750Y-80125000I218750J0D01*
G01*
G37*
G36*
G01*
X127650000Y-88500000D02*
X127350000Y-88500000D01*
G75*
G02*
X127200000Y-88350000I0J150000D01*
G01*
X127200000Y-87325000D01*
G75*
G02*
X127350000Y-87175000I150000J0D01*
G01*
X127650000Y-87175000D01*
G75*
G02*
X127800000Y-87325000I0J-150000D01*
G01*
X127800000Y-88350000D01*
G75*
G02*
X127650000Y-88500000I-150000J0D01*
G01*
G37*
G36*
G01*
X128600000Y-88500000D02*
X128300000Y-88500000D01*
G75*
G02*
X128150000Y-88350000I0J150000D01*
G01*
X128150000Y-87325000D01*
G75*
G02*
X128300000Y-87175000I150000J0D01*
G01*
X128600000Y-87175000D01*
G75*
G02*
X128750000Y-87325000I0J-150000D01*
G01*
X128750000Y-88350000D01*
G75*
G02*
X128600000Y-88500000I-150000J0D01*
G01*
G37*
G36*
G01*
X129550000Y-88500000D02*
X129250000Y-88500000D01*
G75*
G02*
X129100000Y-88350000I0J150000D01*
G01*
X129100000Y-87325000D01*
G75*
G02*
X129250000Y-87175000I150000J0D01*
G01*
X129550000Y-87175000D01*
G75*
G02*
X129700000Y-87325000I0J-150000D01*
G01*
X129700000Y-88350000D01*
G75*
G02*
X129550000Y-88500000I-150000J0D01*
G01*
G37*
G36*
G01*
X129550000Y-86225000D02*
X129250000Y-86225000D01*
G75*
G02*
X129100000Y-86075000I0J150000D01*
G01*
X129100000Y-85050000D01*
G75*
G02*
X129250000Y-84900000I150000J0D01*
G01*
X129550000Y-84900000D01*
G75*
G02*
X129700000Y-85050000I0J-150000D01*
G01*
X129700000Y-86075000D01*
G75*
G02*
X129550000Y-86225000I-150000J0D01*
G01*
G37*
G36*
G01*
X128600000Y-86225000D02*
X128300000Y-86225000D01*
G75*
G02*
X128150000Y-86075000I0J150000D01*
G01*
X128150000Y-85050000D01*
G75*
G02*
X128300000Y-84900000I150000J0D01*
G01*
X128600000Y-84900000D01*
G75*
G02*
X128750000Y-85050000I0J-150000D01*
G01*
X128750000Y-86075000D01*
G75*
G02*
X128600000Y-86225000I-150000J0D01*
G01*
G37*
G36*
G01*
X127650000Y-86225000D02*
X127350000Y-86225000D01*
G75*
G02*
X127200000Y-86075000I0J150000D01*
G01*
X127200000Y-85050000D01*
G75*
G02*
X127350000Y-84900000I150000J0D01*
G01*
X127650000Y-84900000D01*
G75*
G02*
X127800000Y-85050000I0J-150000D01*
G01*
X127800000Y-86075000D01*
G75*
G02*
X127650000Y-86225000I-150000J0D01*
G01*
G37*
D26*
X128000000Y-93110000D03*
X125800000Y-93110000D03*
X125800000Y-94810000D03*
X128000000Y-94810000D03*
%LPD*%
M02*
