G04 #@! TF.GenerationSoftware,KiCad,Pcbnew,8.0.1+dfsg-1*
G04 #@! TF.CreationDate,2024-10-13T21:14:54+00:00*
G04 #@! TF.ProjectId,usb2m2e,75736232-6d32-4652-9e6b-696361645f70,rev?*
G04 #@! TF.SameCoordinates,Original*
G04 #@! TF.FileFunction,Legend,Bot*
G04 #@! TF.FilePolarity,Positive*
%FSLAX46Y46*%
G04 Gerber Fmt 4.6, Leading zero omitted, Abs format (unit mm)*
G04 Created by KiCad (PCBNEW 8.0.1+dfsg-1) date 2024-10-13 21:14:54*
%MOMM*%
%LPD*%
G01*
G04 APERTURE LIST*
%ADD10C,0.120000*%
%ADD11C,1.100000*%
%ADD12C,1.600000*%
%ADD13C,4.500000*%
%ADD14C,0.650000*%
%ADD15O,2.100000X1.000000*%
%ADD16O,1.600000X1.000000*%
%ADD17C,5.000000*%
%ADD18C,1.500000*%
G04 APERTURE END LIST*
D10*
X145150000Y-74700000D02*
G75*
G02*
X143250000Y-74700000I-950000J0D01*
G01*
X143250000Y-74700000D02*
G75*
G02*
X145150000Y-74700000I950000J0D01*
G01*
X147750000Y-83000000D02*
G75*
G02*
X145850000Y-83000000I-950000J0D01*
G01*
X145850000Y-83000000D02*
G75*
G02*
X147750000Y-83000000I950000J0D01*
G01*
X147750000Y-74700000D02*
G75*
G02*
X145850000Y-74700000I-950000J0D01*
G01*
X145850000Y-74700000D02*
G75*
G02*
X147750000Y-74700000I950000J0D01*
G01*
X145150000Y-83000000D02*
G75*
G02*
X143250000Y-83000000I-950000J0D01*
G01*
X143250000Y-83000000D02*
G75*
G02*
X145150000Y-83000000I950000J0D01*
G01*
X139950000Y-83000000D02*
G75*
G02*
X138050000Y-83000000I-950000J0D01*
G01*
X138050000Y-83000000D02*
G75*
G02*
X139950000Y-83000000I950000J0D01*
G01*
X139950000Y-74700000D02*
G75*
G02*
X138050000Y-74700000I-950000J0D01*
G01*
X138050000Y-74700000D02*
G75*
G02*
X139950000Y-74700000I950000J0D01*
G01*
X142550000Y-83000000D02*
G75*
G02*
X140650000Y-83000000I-950000J0D01*
G01*
X140650000Y-83000000D02*
G75*
G02*
X142550000Y-83000000I950000J0D01*
G01*
X142550000Y-74700000D02*
G75*
G02*
X140650000Y-74700000I-950000J0D01*
G01*
X140650000Y-74700000D02*
G75*
G02*
X142550000Y-74700000I950000J0D01*
G01*
%LPC*%
D11*
X136750000Y-93000000D03*
D12*
X136750000Y-73000000D03*
D13*
X122000000Y-71000000D03*
X166000000Y-95000000D03*
X166000000Y-71000000D03*
D14*
X124040000Y-83790000D03*
X124040000Y-89570000D03*
D15*
X124570000Y-82360000D03*
D16*
X120390000Y-82360000D03*
D15*
X124570000Y-91000000D03*
D16*
X120390000Y-91000000D03*
D13*
X122000000Y-95000000D03*
D17*
X165000000Y-83000000D03*
D18*
X144200000Y-74700000D03*
X146800000Y-83000000D03*
X146800000Y-74700000D03*
X144200000Y-83000000D03*
X139000000Y-83000000D03*
X139000000Y-74700000D03*
X141600000Y-83000000D03*
X141600000Y-74700000D03*
%LPD*%
M02*
