G04 #@! TF.GenerationSoftware,KiCad,Pcbnew,8.0.1+dfsg-1*
G04 #@! TF.CreationDate,2024-10-13T21:14:54+00:00*
G04 #@! TF.ProjectId,usb2m2e,75736232-6d32-4652-9e6b-696361645f70,rev?*
G04 #@! TF.SameCoordinates,Original*
G04 #@! TF.FileFunction,Soldermask,Top*
G04 #@! TF.FilePolarity,Negative*
%FSLAX46Y46*%
G04 Gerber Fmt 4.6, Leading zero omitted, Abs format (unit mm)*
G04 Created by KiCad (PCBNEW 8.0.1+dfsg-1) date 2024-10-13 21:14:54*
%MOMM*%
%LPD*%
G01*
G04 APERTURE LIST*
%ADD10C,1.100000*%
%ADD11C,1.600000*%
%ADD12R,1.550000X0.300000*%
%ADD13R,2.750000X1.200000*%
%ADD14C,4.500000*%
%ADD15R,1.900000X1.100000*%
%ADD16C,0.650000*%
%ADD17R,1.450000X0.600000*%
%ADD18R,1.450000X0.300000*%
%ADD19O,2.100000X1.000000*%
%ADD20O,1.600000X1.000000*%
%ADD21C,5.000000*%
%ADD22R,1.400000X1.200000*%
G04 APERTURE END LIST*
D10*
X136750000Y-93000000D03*
D11*
X136750000Y-73000000D03*
D12*
X131525000Y-92250000D03*
X138975000Y-92000000D03*
X131525000Y-91750000D03*
X138975000Y-91500000D03*
X131525000Y-91250000D03*
X138975000Y-91000000D03*
X131525000Y-90750000D03*
X138975000Y-90500000D03*
X131525000Y-90250000D03*
X138975000Y-90000000D03*
X131525000Y-89750000D03*
X138975000Y-89500000D03*
X131525000Y-89250000D03*
X138975000Y-89000000D03*
X131525000Y-88750000D03*
X138975000Y-88500000D03*
X131525000Y-88250000D03*
X138975000Y-88000000D03*
X131525000Y-87750000D03*
X138975000Y-87500000D03*
X131525000Y-87250000D03*
X138975000Y-87000000D03*
X131525000Y-86750000D03*
X138975000Y-86500000D03*
X131525000Y-86250000D03*
X138975000Y-86000000D03*
X131525000Y-85750000D03*
X138975000Y-85500000D03*
X131525000Y-85250000D03*
X138975000Y-85000000D03*
X131525000Y-84750000D03*
X138975000Y-84500000D03*
X131525000Y-84250000D03*
X138975000Y-84000000D03*
X131525000Y-83750000D03*
X138975000Y-83500000D03*
X131525000Y-83250000D03*
X138975000Y-83000000D03*
X131525000Y-82750000D03*
X138975000Y-82500000D03*
X131525000Y-82250000D03*
X138975000Y-82000000D03*
X131525000Y-81750000D03*
X138975000Y-81500000D03*
X131525000Y-81250000D03*
X138975000Y-81000000D03*
X131525000Y-80750000D03*
X138975000Y-80500000D03*
X131525000Y-80250000D03*
X138975000Y-80000000D03*
X131525000Y-79750000D03*
X138975000Y-79500000D03*
X131525000Y-79250000D03*
X138975000Y-79000000D03*
X131525000Y-78750000D03*
X138975000Y-78500000D03*
X131525000Y-78250000D03*
X138975000Y-78000000D03*
X131525000Y-77750000D03*
X138975000Y-77500000D03*
X131525000Y-77250000D03*
X138975000Y-77000000D03*
X131525000Y-76750000D03*
X138975000Y-76500000D03*
X131525000Y-76250000D03*
X138975000Y-76000000D03*
X131525000Y-75750000D03*
X138975000Y-75500000D03*
X131525000Y-75250000D03*
X138975000Y-75000000D03*
X131525000Y-74750000D03*
X138975000Y-74500000D03*
X131525000Y-74250000D03*
X138975000Y-74000000D03*
X131525000Y-73750000D03*
D13*
X132250000Y-93350000D03*
X132250000Y-72650000D03*
G36*
G01*
X121380000Y-76740000D02*
X121720000Y-76740000D01*
G75*
G02*
X121860000Y-76880000I0J-140000D01*
G01*
X121860000Y-77160000D01*
G75*
G02*
X121720000Y-77300000I-140000J0D01*
G01*
X121380000Y-77300000D01*
G75*
G02*
X121240000Y-77160000I0J140000D01*
G01*
X121240000Y-76880000D01*
G75*
G02*
X121380000Y-76740000I140000J0D01*
G01*
G37*
G36*
G01*
X121380000Y-77700000D02*
X121720000Y-77700000D01*
G75*
G02*
X121860000Y-77840000I0J-140000D01*
G01*
X121860000Y-78120000D01*
G75*
G02*
X121720000Y-78260000I-140000J0D01*
G01*
X121380000Y-78260000D01*
G75*
G02*
X121240000Y-78120000I0J140000D01*
G01*
X121240000Y-77840000D01*
G75*
G02*
X121380000Y-77700000I140000J0D01*
G01*
G37*
G36*
G01*
X126380000Y-96035000D02*
X126380000Y-96405000D01*
G75*
G02*
X126245000Y-96540000I-135000J0D01*
G01*
X125975000Y-96540000D01*
G75*
G02*
X125840000Y-96405000I0J135000D01*
G01*
X125840000Y-96035000D01*
G75*
G02*
X125975000Y-95900000I135000J0D01*
G01*
X126245000Y-95900000D01*
G75*
G02*
X126380000Y-96035000I0J-135000D01*
G01*
G37*
G36*
G01*
X125360000Y-96035000D02*
X125360000Y-96405000D01*
G75*
G02*
X125225000Y-96540000I-135000J0D01*
G01*
X124955000Y-96540000D01*
G75*
G02*
X124820000Y-96405000I0J135000D01*
G01*
X124820000Y-96035000D01*
G75*
G02*
X124955000Y-95900000I135000J0D01*
G01*
X125225000Y-95900000D01*
G75*
G02*
X125360000Y-96035000I0J-135000D01*
G01*
G37*
G36*
G01*
X125265000Y-75852500D02*
X125265000Y-76222500D01*
G75*
G02*
X125130000Y-76357500I-135000J0D01*
G01*
X124860000Y-76357500D01*
G75*
G02*
X124725000Y-76222500I0J135000D01*
G01*
X124725000Y-75852500D01*
G75*
G02*
X124860000Y-75717500I135000J0D01*
G01*
X125130000Y-75717500D01*
G75*
G02*
X125265000Y-75852500I0J-135000D01*
G01*
G37*
G36*
G01*
X124245000Y-75852500D02*
X124245000Y-76222500D01*
G75*
G02*
X124110000Y-76357500I-135000J0D01*
G01*
X123840000Y-76357500D01*
G75*
G02*
X123705000Y-76222500I0J135000D01*
G01*
X123705000Y-75852500D01*
G75*
G02*
X123840000Y-75717500I135000J0D01*
G01*
X124110000Y-75717500D01*
G75*
G02*
X124245000Y-75852500I0J-135000D01*
G01*
G37*
G36*
G01*
X121735000Y-80180000D02*
X121365000Y-80180000D01*
G75*
G02*
X121230000Y-80045000I0J135000D01*
G01*
X121230000Y-79775000D01*
G75*
G02*
X121365000Y-79640000I135000J0D01*
G01*
X121735000Y-79640000D01*
G75*
G02*
X121870000Y-79775000I0J-135000D01*
G01*
X121870000Y-80045000D01*
G75*
G02*
X121735000Y-80180000I-135000J0D01*
G01*
G37*
G36*
G01*
X121735000Y-79160000D02*
X121365000Y-79160000D01*
G75*
G02*
X121230000Y-79025000I0J135000D01*
G01*
X121230000Y-78755000D01*
G75*
G02*
X121365000Y-78620000I135000J0D01*
G01*
X121735000Y-78620000D01*
G75*
G02*
X121870000Y-78755000I0J-135000D01*
G01*
X121870000Y-79025000D01*
G75*
G02*
X121735000Y-79160000I-135000J0D01*
G01*
G37*
G36*
G01*
X129785000Y-95490000D02*
X129415000Y-95490000D01*
G75*
G02*
X129280000Y-95355000I0J135000D01*
G01*
X129280000Y-95085000D01*
G75*
G02*
X129415000Y-94950000I135000J0D01*
G01*
X129785000Y-94950000D01*
G75*
G02*
X129920000Y-95085000I0J-135000D01*
G01*
X129920000Y-95355000D01*
G75*
G02*
X129785000Y-95490000I-135000J0D01*
G01*
G37*
G36*
G01*
X129785000Y-94470000D02*
X129415000Y-94470000D01*
G75*
G02*
X129280000Y-94335000I0J135000D01*
G01*
X129280000Y-94065000D01*
G75*
G02*
X129415000Y-93930000I135000J0D01*
G01*
X129785000Y-93930000D01*
G75*
G02*
X129920000Y-94065000I0J-135000D01*
G01*
X129920000Y-94335000D01*
G75*
G02*
X129785000Y-94470000I-135000J0D01*
G01*
G37*
G36*
G01*
X129215000Y-72820000D02*
X129585000Y-72820000D01*
G75*
G02*
X129720000Y-72955000I0J-135000D01*
G01*
X129720000Y-73225000D01*
G75*
G02*
X129585000Y-73360000I-135000J0D01*
G01*
X129215000Y-73360000D01*
G75*
G02*
X129080000Y-73225000I0J135000D01*
G01*
X129080000Y-72955000D01*
G75*
G02*
X129215000Y-72820000I135000J0D01*
G01*
G37*
G36*
G01*
X129215000Y-73840000D02*
X129585000Y-73840000D01*
G75*
G02*
X129720000Y-73975000I0J-135000D01*
G01*
X129720000Y-74245000D01*
G75*
G02*
X129585000Y-74380000I-135000J0D01*
G01*
X129215000Y-74380000D01*
G75*
G02*
X129080000Y-74245000I0J135000D01*
G01*
X129080000Y-73975000D01*
G75*
G02*
X129215000Y-73840000I135000J0D01*
G01*
G37*
D14*
X122000000Y-71000000D03*
G36*
G01*
X128260000Y-96040000D02*
X128260000Y-96380000D01*
G75*
G02*
X128120000Y-96520000I-140000J0D01*
G01*
X127840000Y-96520000D01*
G75*
G02*
X127700000Y-96380000I0J140000D01*
G01*
X127700000Y-96040000D01*
G75*
G02*
X127840000Y-95900000I140000J0D01*
G01*
X128120000Y-95900000D01*
G75*
G02*
X128260000Y-96040000I0J-140000D01*
G01*
G37*
G36*
G01*
X127300000Y-96040000D02*
X127300000Y-96380000D01*
G75*
G02*
X127160000Y-96520000I-140000J0D01*
G01*
X126880000Y-96520000D01*
G75*
G02*
X126740000Y-96380000I0J140000D01*
G01*
X126740000Y-96040000D01*
G75*
G02*
X126880000Y-95900000I140000J0D01*
G01*
X127160000Y-95900000D01*
G75*
G02*
X127300000Y-96040000I0J-140000D01*
G01*
G37*
G36*
G01*
X128150000Y-73650000D02*
X128150000Y-74950000D01*
G75*
G02*
X127900000Y-75200000I-250000J0D01*
G01*
X127250000Y-75200000D01*
G75*
G02*
X127000000Y-74950000I0J250000D01*
G01*
X127000000Y-73650000D01*
G75*
G02*
X127250000Y-73400000I250000J0D01*
G01*
X127900000Y-73400000D01*
G75*
G02*
X128150000Y-73650000I0J-250000D01*
G01*
G37*
G36*
G01*
X125200000Y-73650000D02*
X125200000Y-74950000D01*
G75*
G02*
X124950000Y-75200000I-250000J0D01*
G01*
X124300000Y-75200000D01*
G75*
G02*
X124050000Y-74950000I0J250000D01*
G01*
X124050000Y-73650000D01*
G75*
G02*
X124300000Y-73400000I250000J0D01*
G01*
X124950000Y-73400000D01*
G75*
G02*
X125200000Y-73650000I0J-250000D01*
G01*
G37*
G36*
G01*
X127385000Y-83380000D02*
X127015000Y-83380000D01*
G75*
G02*
X126880000Y-83245000I0J135000D01*
G01*
X126880000Y-82975000D01*
G75*
G02*
X127015000Y-82840000I135000J0D01*
G01*
X127385000Y-82840000D01*
G75*
G02*
X127520000Y-82975000I0J-135000D01*
G01*
X127520000Y-83245000D01*
G75*
G02*
X127385000Y-83380000I-135000J0D01*
G01*
G37*
G36*
G01*
X127385000Y-82360000D02*
X127015000Y-82360000D01*
G75*
G02*
X126880000Y-82225000I0J135000D01*
G01*
X126880000Y-81955000D01*
G75*
G02*
X127015000Y-81820000I135000J0D01*
G01*
X127385000Y-81820000D01*
G75*
G02*
X127520000Y-81955000I0J-135000D01*
G01*
X127520000Y-82225000D01*
G75*
G02*
X127385000Y-82360000I-135000J0D01*
G01*
G37*
X166000000Y-95000000D03*
G36*
G01*
X127115000Y-89130000D02*
X127485000Y-89130000D01*
G75*
G02*
X127620000Y-89265000I0J-135000D01*
G01*
X127620000Y-89535000D01*
G75*
G02*
X127485000Y-89670000I-135000J0D01*
G01*
X127115000Y-89670000D01*
G75*
G02*
X126980000Y-89535000I0J135000D01*
G01*
X126980000Y-89265000D01*
G75*
G02*
X127115000Y-89130000I135000J0D01*
G01*
G37*
G36*
G01*
X127115000Y-90150000D02*
X127485000Y-90150000D01*
G75*
G02*
X127620000Y-90285000I0J-135000D01*
G01*
X127620000Y-90555000D01*
G75*
G02*
X127485000Y-90690000I-135000J0D01*
G01*
X127115000Y-90690000D01*
G75*
G02*
X126980000Y-90555000I0J135000D01*
G01*
X126980000Y-90285000D01*
G75*
G02*
X127115000Y-90150000I135000J0D01*
G01*
G37*
G36*
G01*
X123365000Y-75852500D02*
X123365000Y-76222500D01*
G75*
G02*
X123230000Y-76357500I-135000J0D01*
G01*
X122960000Y-76357500D01*
G75*
G02*
X122825000Y-76222500I0J135000D01*
G01*
X122825000Y-75852500D01*
G75*
G02*
X122960000Y-75717500I135000J0D01*
G01*
X123230000Y-75717500D01*
G75*
G02*
X123365000Y-75852500I0J-135000D01*
G01*
G37*
G36*
G01*
X122345000Y-75852500D02*
X122345000Y-76222500D01*
G75*
G02*
X122210000Y-76357500I-135000J0D01*
G01*
X121940000Y-76357500D01*
G75*
G02*
X121805000Y-76222500I0J135000D01*
G01*
X121805000Y-75852500D01*
G75*
G02*
X121940000Y-75717500I135000J0D01*
G01*
X122210000Y-75717500D01*
G75*
G02*
X122345000Y-75852500I0J-135000D01*
G01*
G37*
G36*
G01*
X122975000Y-79612500D02*
X122725000Y-79612500D01*
G75*
G02*
X122600000Y-79487500I0J125000D01*
G01*
X122600000Y-79112500D01*
G75*
G02*
X122725000Y-78987500I125000J0D01*
G01*
X122975000Y-78987500D01*
G75*
G02*
X123100000Y-79112500I0J-125000D01*
G01*
X123100000Y-79487500D01*
G75*
G02*
X122975000Y-79612500I-125000J0D01*
G01*
G37*
G36*
G01*
X123625000Y-79612500D02*
X123375000Y-79612500D01*
G75*
G02*
X123250000Y-79487500I0J125000D01*
G01*
X123250000Y-79112500D01*
G75*
G02*
X123375000Y-78987500I125000J0D01*
G01*
X123625000Y-78987500D01*
G75*
G02*
X123750000Y-79112500I0J-125000D01*
G01*
X123750000Y-79487500D01*
G75*
G02*
X123625000Y-79612500I-125000J0D01*
G01*
G37*
G36*
G01*
X124275000Y-79612500D02*
X124025000Y-79612500D01*
G75*
G02*
X123900000Y-79487500I0J125000D01*
G01*
X123900000Y-79112500D01*
G75*
G02*
X124025000Y-78987500I125000J0D01*
G01*
X124275000Y-78987500D01*
G75*
G02*
X124400000Y-79112500I0J-125000D01*
G01*
X124400000Y-79487500D01*
G75*
G02*
X124275000Y-79612500I-125000J0D01*
G01*
G37*
G36*
G01*
X124925000Y-79612500D02*
X124675000Y-79612500D01*
G75*
G02*
X124550000Y-79487500I0J125000D01*
G01*
X124550000Y-79112500D01*
G75*
G02*
X124675000Y-78987500I125000J0D01*
G01*
X124925000Y-78987500D01*
G75*
G02*
X125050000Y-79112500I0J-125000D01*
G01*
X125050000Y-79487500D01*
G75*
G02*
X124925000Y-79612500I-125000J0D01*
G01*
G37*
G36*
G01*
X124925000Y-77487500D02*
X124675000Y-77487500D01*
G75*
G02*
X124550000Y-77362500I0J125000D01*
G01*
X124550000Y-76987500D01*
G75*
G02*
X124675000Y-76862500I125000J0D01*
G01*
X124925000Y-76862500D01*
G75*
G02*
X125050000Y-76987500I0J-125000D01*
G01*
X125050000Y-77362500D01*
G75*
G02*
X124925000Y-77487500I-125000J0D01*
G01*
G37*
G36*
G01*
X124275000Y-77487500D02*
X124025000Y-77487500D01*
G75*
G02*
X123900000Y-77362500I0J125000D01*
G01*
X123900000Y-76987500D01*
G75*
G02*
X124025000Y-76862500I125000J0D01*
G01*
X124275000Y-76862500D01*
G75*
G02*
X124400000Y-76987500I0J-125000D01*
G01*
X124400000Y-77362500D01*
G75*
G02*
X124275000Y-77487500I-125000J0D01*
G01*
G37*
G36*
G01*
X123625000Y-77487500D02*
X123375000Y-77487500D01*
G75*
G02*
X123250000Y-77362500I0J125000D01*
G01*
X123250000Y-76987500D01*
G75*
G02*
X123375000Y-76862500I125000J0D01*
G01*
X123625000Y-76862500D01*
G75*
G02*
X123750000Y-76987500I0J-125000D01*
G01*
X123750000Y-77362500D01*
G75*
G02*
X123625000Y-77487500I-125000J0D01*
G01*
G37*
G36*
G01*
X122975000Y-77487500D02*
X122725000Y-77487500D01*
G75*
G02*
X122600000Y-77362500I0J125000D01*
G01*
X122600000Y-76987500D01*
G75*
G02*
X122725000Y-76862500I125000J0D01*
G01*
X122975000Y-76862500D01*
G75*
G02*
X123100000Y-76987500I0J-125000D01*
G01*
X123100000Y-77362500D01*
G75*
G02*
X122975000Y-77487500I-125000J0D01*
G01*
G37*
D15*
X123825000Y-78237500D03*
D14*
X166000000Y-71000000D03*
G36*
G01*
X127450000Y-80675000D02*
X126150000Y-80675000D01*
G75*
G02*
X125900000Y-80425000I0J250000D01*
G01*
X125900000Y-79775000D01*
G75*
G02*
X126150000Y-79525000I250000J0D01*
G01*
X127450000Y-79525000D01*
G75*
G02*
X127700000Y-79775000I0J-250000D01*
G01*
X127700000Y-80425000D01*
G75*
G02*
X127450000Y-80675000I-250000J0D01*
G01*
G37*
G36*
G01*
X127450000Y-77725000D02*
X126150000Y-77725000D01*
G75*
G02*
X125900000Y-77475000I0J250000D01*
G01*
X125900000Y-76825000D01*
G75*
G02*
X126150000Y-76575000I250000J0D01*
G01*
X127450000Y-76575000D01*
G75*
G02*
X127700000Y-76825000I0J-250000D01*
G01*
X127700000Y-77475000D01*
G75*
G02*
X127450000Y-77725000I-250000J0D01*
G01*
G37*
G36*
G01*
X123240000Y-80670000D02*
X123240000Y-80330000D01*
G75*
G02*
X123380000Y-80190000I140000J0D01*
G01*
X123660000Y-80190000D01*
G75*
G02*
X123800000Y-80330000I0J-140000D01*
G01*
X123800000Y-80670000D01*
G75*
G02*
X123660000Y-80810000I-140000J0D01*
G01*
X123380000Y-80810000D01*
G75*
G02*
X123240000Y-80670000I0J140000D01*
G01*
G37*
G36*
G01*
X124200000Y-80670000D02*
X124200000Y-80330000D01*
G75*
G02*
X124340000Y-80190000I140000J0D01*
G01*
X124620000Y-80190000D01*
G75*
G02*
X124760000Y-80330000I0J-140000D01*
G01*
X124760000Y-80670000D01*
G75*
G02*
X124620000Y-80810000I-140000J0D01*
G01*
X124340000Y-80810000D01*
G75*
G02*
X124200000Y-80670000I0J140000D01*
G01*
G37*
D16*
X124040000Y-83790000D03*
X124040000Y-89570000D03*
D17*
X125485000Y-83430000D03*
X125485000Y-84230000D03*
D18*
X125485000Y-85430000D03*
X125485000Y-86430000D03*
X125485000Y-86930000D03*
X125485000Y-87930000D03*
D17*
X125485000Y-89130000D03*
X125485000Y-89930000D03*
X125485000Y-89930000D03*
X125485000Y-89130000D03*
D18*
X125485000Y-88430000D03*
X125485000Y-87430000D03*
X125485000Y-85930000D03*
X125485000Y-84930000D03*
D17*
X125485000Y-84230000D03*
X125485000Y-83430000D03*
D19*
X124570000Y-82360000D03*
D20*
X120390000Y-82360000D03*
D19*
X124570000Y-91000000D03*
D20*
X120390000Y-91000000D03*
G36*
G01*
X128981250Y-84300000D02*
X128218750Y-84300000D01*
G75*
G02*
X128000000Y-84081250I0J218750D01*
G01*
X128000000Y-83643750D01*
G75*
G02*
X128218750Y-83425000I218750J0D01*
G01*
X128981250Y-83425000D01*
G75*
G02*
X129200000Y-83643750I0J-218750D01*
G01*
X129200000Y-84081250D01*
G75*
G02*
X128981250Y-84300000I-218750J0D01*
G01*
G37*
G36*
G01*
X128981250Y-82175000D02*
X128218750Y-82175000D01*
G75*
G02*
X128000000Y-81956250I0J218750D01*
G01*
X128000000Y-81518750D01*
G75*
G02*
X128218750Y-81300000I218750J0D01*
G01*
X128981250Y-81300000D01*
G75*
G02*
X129200000Y-81518750I0J-218750D01*
G01*
X129200000Y-81956250D01*
G75*
G02*
X128981250Y-82175000I-218750J0D01*
G01*
G37*
D14*
X122000000Y-95000000D03*
D21*
X165000000Y-83000000D03*
G36*
G01*
X140350000Y-96650000D02*
X140350000Y-95350000D01*
G75*
G02*
X140600000Y-95100000I250000J0D01*
G01*
X141250000Y-95100000D01*
G75*
G02*
X141500000Y-95350000I0J-250000D01*
G01*
X141500000Y-96650000D01*
G75*
G02*
X141250000Y-96900000I-250000J0D01*
G01*
X140600000Y-96900000D01*
G75*
G02*
X140350000Y-96650000I0J250000D01*
G01*
G37*
G36*
G01*
X143300000Y-96650000D02*
X143300000Y-95350000D01*
G75*
G02*
X143550000Y-95100000I250000J0D01*
G01*
X144200000Y-95100000D01*
G75*
G02*
X144450000Y-95350000I0J-250000D01*
G01*
X144450000Y-96650000D01*
G75*
G02*
X144200000Y-96900000I-250000J0D01*
G01*
X143550000Y-96900000D01*
G75*
G02*
X143300000Y-96650000I0J250000D01*
G01*
G37*
G36*
G01*
X119818750Y-78000000D02*
X120581250Y-78000000D01*
G75*
G02*
X120800000Y-78218750I0J-218750D01*
G01*
X120800000Y-78656250D01*
G75*
G02*
X120581250Y-78875000I-218750J0D01*
G01*
X119818750Y-78875000D01*
G75*
G02*
X119600000Y-78656250I0J218750D01*
G01*
X119600000Y-78218750D01*
G75*
G02*
X119818750Y-78000000I218750J0D01*
G01*
G37*
G36*
G01*
X119818750Y-80125000D02*
X120581250Y-80125000D01*
G75*
G02*
X120800000Y-80343750I0J-218750D01*
G01*
X120800000Y-80781250D01*
G75*
G02*
X120581250Y-81000000I-218750J0D01*
G01*
X119818750Y-81000000D01*
G75*
G02*
X119600000Y-80781250I0J218750D01*
G01*
X119600000Y-80343750D01*
G75*
G02*
X119818750Y-80125000I218750J0D01*
G01*
G37*
G36*
G01*
X127650000Y-88500000D02*
X127350000Y-88500000D01*
G75*
G02*
X127200000Y-88350000I0J150000D01*
G01*
X127200000Y-87325000D01*
G75*
G02*
X127350000Y-87175000I150000J0D01*
G01*
X127650000Y-87175000D01*
G75*
G02*
X127800000Y-87325000I0J-150000D01*
G01*
X127800000Y-88350000D01*
G75*
G02*
X127650000Y-88500000I-150000J0D01*
G01*
G37*
G36*
G01*
X128600000Y-88500000D02*
X128300000Y-88500000D01*
G75*
G02*
X128150000Y-88350000I0J150000D01*
G01*
X128150000Y-87325000D01*
G75*
G02*
X128300000Y-87175000I150000J0D01*
G01*
X128600000Y-87175000D01*
G75*
G02*
X128750000Y-87325000I0J-150000D01*
G01*
X128750000Y-88350000D01*
G75*
G02*
X128600000Y-88500000I-150000J0D01*
G01*
G37*
G36*
G01*
X129550000Y-88500000D02*
X129250000Y-88500000D01*
G75*
G02*
X129100000Y-88350000I0J150000D01*
G01*
X129100000Y-87325000D01*
G75*
G02*
X129250000Y-87175000I150000J0D01*
G01*
X129550000Y-87175000D01*
G75*
G02*
X129700000Y-87325000I0J-150000D01*
G01*
X129700000Y-88350000D01*
G75*
G02*
X129550000Y-88500000I-150000J0D01*
G01*
G37*
G36*
G01*
X129550000Y-86225000D02*
X129250000Y-86225000D01*
G75*
G02*
X129100000Y-86075000I0J150000D01*
G01*
X129100000Y-85050000D01*
G75*
G02*
X129250000Y-84900000I150000J0D01*
G01*
X129550000Y-84900000D01*
G75*
G02*
X129700000Y-85050000I0J-150000D01*
G01*
X129700000Y-86075000D01*
G75*
G02*
X129550000Y-86225000I-150000J0D01*
G01*
G37*
G36*
G01*
X128600000Y-86225000D02*
X128300000Y-86225000D01*
G75*
G02*
X128150000Y-86075000I0J150000D01*
G01*
X128150000Y-85050000D01*
G75*
G02*
X128300000Y-84900000I150000J0D01*
G01*
X128600000Y-84900000D01*
G75*
G02*
X128750000Y-85050000I0J-150000D01*
G01*
X128750000Y-86075000D01*
G75*
G02*
X128600000Y-86225000I-150000J0D01*
G01*
G37*
G36*
G01*
X127650000Y-86225000D02*
X127350000Y-86225000D01*
G75*
G02*
X127200000Y-86075000I0J150000D01*
G01*
X127200000Y-85050000D01*
G75*
G02*
X127350000Y-84900000I150000J0D01*
G01*
X127650000Y-84900000D01*
G75*
G02*
X127800000Y-85050000I0J-150000D01*
G01*
X127800000Y-86075000D01*
G75*
G02*
X127650000Y-86225000I-150000J0D01*
G01*
G37*
D22*
X128000000Y-93110000D03*
X125800000Y-93110000D03*
X125800000Y-94810000D03*
X128000000Y-94810000D03*
M02*
